<svg width="1320" height="599" viewBox="0 0 1320 599" fill="none" xmlns="http://www.w3.org/2000/svg">
<g filter="url(#filter0_b_43_949)">
<rect x="1320" y="599" width="1320" height="594" rx="20" transform="rotate(-180 1320 599)" fill="#3C3C3C" fill-opacity="0.2"/>
<rect x="1320" y="599" width="1320" height="594" rx="20" transform="rotate(-180 1320 599)" fill="url(#paint0_linear_43_949)"/>
</g>
<g filter="url(#filter1_f_43_949)">
<path d="M133 5H1064.5" stroke="url(#paint1_linear_43_949)" stroke-width="2"/>
</g>
<g filter="url(#filter2_f_43_949)">
<path d="M133 5H1064.5" stroke="url(#paint2_linear_43_949)" stroke-width="2"/>
</g>
<circle cx="256.25" cy="66.875" r="2.375" fill="white" fill-opacity="0.04"/>
<circle cx="339.375" cy="59.75" r="2.375" fill="white" fill-opacity="0.04"/>
<circle cx="294.25" cy="62.125" r="2.375" fill="white" fill-opacity="0.04"/>
<circle cx="377.375" cy="55" r="2.375" fill="white" fill-opacity="0.04"/>
<circle cx="320.375" cy="71.625" r="2.375" fill="white" fill-opacity="0.04"/>
<circle cx="403.5" cy="64.5" r="2.375" fill="white" fill-opacity="0.04"/>
<circle cx="479.5" cy="57.375" r="2.375" fill="white" fill-opacity="0.04"/>
<circle cx="265.75" cy="57.375" r="2.375" fill="white" fill-opacity="0.04"/>
<circle cx="424.875" cy="43.125" r="2.375" fill="white" fill-opacity="0.04"/>
<circle cx="303.75" cy="52.625" r="2.375" fill="white" fill-opacity="0.04"/>
<circle cx="462.875" cy="38.375" r="2.375" fill="white" fill-opacity="0.04"/>
<circle cx="329.875" cy="62.125" r="2.375" fill="white" fill-opacity="0.04"/>
<circle cx="413" cy="55" r="2.375" fill="white" fill-opacity="0.04"/>
<circle cx="489" cy="47.875" r="2.375" fill="white" fill-opacity="0.04"/>
<circle cx="365.5" cy="59.75" r="2.375" fill="white" fill-opacity="0.04"/>
<circle cx="320.375" cy="62.125" r="2.375" fill="white" fill-opacity="0.04"/>
<circle cx="403.5" cy="55" r="2.375" fill="white" fill-opacity="0.04"/>
<circle cx="479.5" cy="47.875" r="2.375" fill="white" fill-opacity="0.04"/>
<circle cx="429.625" cy="64.5" r="2.375" fill="white" fill-opacity="0.04"/>
<circle cx="505.625" cy="57.375" r="2.375" fill="white" fill-opacity="0.04"/>
<circle cx="244.375" cy="57.375" r="2.375" fill="white" fill-opacity="0.04"/>
<circle cx="327.5" cy="50.25" r="2.375" fill="white" fill-opacity="0.04"/>
<circle cx="282.375" cy="52.625" r="2.375" fill="white" fill-opacity="0.04"/>
<circle cx="365.5" cy="45.5" r="2.375" fill="white" fill-opacity="0.04"/>
<circle cx="441.5" cy="38.375" r="2.375" fill="white" fill-opacity="0.04"/>
<circle cx="391.625" cy="55" r="2.375" fill="white" fill-opacity="0.04"/>
<circle cx="467.625" cy="47.875" r="2.375" fill="white" fill-opacity="0.04"/>
<circle cx="550.25" cy="64.875" r="2.375" fill="white" fill-opacity="0.04"/>
<circle cx="633.375" cy="57.75" r="2.375" fill="white" fill-opacity="0.04"/>
<circle cx="588.25" cy="60.125" r="2.375" fill="white" fill-opacity="0.04"/>
<circle cx="671.375" cy="53" r="2.375" fill="white" fill-opacity="0.04"/>
<circle cx="614.375" cy="69.625" r="2.375" fill="white" fill-opacity="0.04"/>
<circle cx="697.5" cy="62.5" r="2.375" fill="white" fill-opacity="0.04"/>
<circle cx="773.5" cy="55.375" r="2.375" fill="white" fill-opacity="0.04"/>
<circle cx="559.75" cy="55.375" r="2.375" fill="white" fill-opacity="0.04"/>
<circle cx="718.875" cy="41.125" r="2.375" fill="white" fill-opacity="0.04"/>
<circle cx="597.75" cy="50.625" r="2.375" fill="white" fill-opacity="0.04"/>
<circle cx="756.875" cy="36.375" r="2.375" fill="white" fill-opacity="0.04"/>
<circle cx="623.875" cy="60.125" r="2.375" fill="white" fill-opacity="0.04"/>
<circle cx="707" cy="53" r="2.375" fill="white" fill-opacity="0.04"/>
<circle cx="783" cy="45.875" r="2.375" fill="white" fill-opacity="0.04"/>
<circle cx="659.5" cy="57.75" r="2.375" fill="white" fill-opacity="0.04"/>
<circle cx="614.375" cy="60.125" r="2.375" fill="white" fill-opacity="0.04"/>
<circle cx="697.5" cy="53" r="2.375" fill="white" fill-opacity="0.04"/>
<circle cx="773.5" cy="45.875" r="2.375" fill="white" fill-opacity="0.04"/>
<circle cx="723.625" cy="62.5" r="2.375" fill="white" fill-opacity="0.04"/>
<circle cx="799.625" cy="55.375" r="2.375" fill="white" fill-opacity="0.04"/>
<circle cx="538.375" cy="55.375" r="2.375" fill="white" fill-opacity="0.04"/>
<circle cx="621.5" cy="48.25" r="2.375" fill="white" fill-opacity="0.04"/>
<circle cx="576.375" cy="50.625" r="2.375" fill="white" fill-opacity="0.04"/>
<circle cx="659.5" cy="43.5" r="2.375" fill="white" fill-opacity="0.04"/>
<circle cx="735.5" cy="36.375" r="2.375" fill="white" fill-opacity="0.04"/>
<circle cx="685.625" cy="53" r="2.375" fill="white" fill-opacity="0.04"/>
<circle cx="761.625" cy="45.875" r="2.375" fill="white" fill-opacity="0.04"/>
<circle cx="830.25" cy="64.875" r="2.375" fill="white" fill-opacity="0.04"/>
<circle cx="913.375" cy="57.75" r="2.375" fill="white" fill-opacity="0.04"/>
<circle cx="868.25" cy="60.125" r="2.375" fill="white" fill-opacity="0.04"/>
<circle cx="951.375" cy="53" r="2.375" fill="white" fill-opacity="0.04"/>
<circle cx="894.375" cy="69.625" r="2.375" fill="white" fill-opacity="0.04"/>
<circle cx="839.75" cy="55.375" r="2.375" fill="white" fill-opacity="0.04"/>
<circle cx="877.75" cy="50.625" r="2.375" fill="white" fill-opacity="0.04"/>
<circle cx="903.875" cy="60.125" r="2.375" fill="white" fill-opacity="0.04"/>
<circle cx="939.5" cy="57.75" r="2.375" fill="white" fill-opacity="0.04"/>
<circle cx="894.375" cy="60.125" r="2.375" fill="white" fill-opacity="0.04"/>
<circle cx="818.375" cy="55.375" r="2.375" fill="white" fill-opacity="0.04"/>
<circle cx="901.5" cy="48.25" r="2.375" fill="white" fill-opacity="0.04"/>
<circle cx="856.375" cy="50.625" r="2.375" fill="white" fill-opacity="0.04"/>
<circle cx="939.5" cy="43.5" r="2.375" fill="white" fill-opacity="0.04"/>
<circle cx="965.625" cy="53" r="2.375" fill="white" fill-opacity="0.04"/>
<defs>
<filter id="filter0_b_43_949" x="-55.3" y="-50.3" width="1430.6" height="704.6" filterUnits="userSpaceOnUse" color-interpolation-filters="sRGB">
<feFlood flood-opacity="0" result="BackgroundImageFix"/>
<feGaussianBlur in="BackgroundImageFix" stdDeviation="27.65"/>
<feComposite in2="SourceAlpha" operator="in" result="effect1_backgroundBlur_43_949"/>
<feBlend mode="normal" in="SourceGraphic" in2="effect1_backgroundBlur_43_949" result="shape"/>
</filter>
<filter id="filter1_f_43_949" x="129" y="0" width="939.5" height="10" filterUnits="userSpaceOnUse" color-interpolation-filters="sRGB">
<feFlood flood-opacity="0" result="BackgroundImageFix"/>
<feBlend mode="normal" in="SourceGraphic" in2="BackgroundImageFix" result="shape"/>
<feGaussianBlur stdDeviation="2" result="effect1_foregroundBlur_43_949"/>
</filter>
<filter id="filter2_f_43_949" x="129" y="0" width="939.5" height="10" filterUnits="userSpaceOnUse" color-interpolation-filters="sRGB">
<feFlood flood-opacity="0" result="BackgroundImageFix"/>
<feBlend mode="normal" in="SourceGraphic" in2="BackgroundImageFix" result="shape"/>
<feGaussianBlur stdDeviation="2" result="effect1_foregroundBlur_43_949"/>
</filter>
<linearGradient id="paint0_linear_43_949" x1="2002.5" y1="891.696" x2="2002.5" y2="2178.7" gradientUnits="userSpaceOnUse">
<stop stop-color="#0A1620" stop-opacity="0"/>
<stop offset="0.36789" stop-color="#2888D7"/>
</linearGradient>
<linearGradient id="paint1_linear_43_949" x1="133" y1="5.5" x2="1064.5" y2="5.5" gradientUnits="userSpaceOnUse">
<stop stop-color="#6BD1FF" stop-opacity="0"/>
<stop offset="0.500663" stop-color="#6BD1FF"/>
<stop offset="1" stop-color="#6BD1FF" stop-opacity="0"/>
</linearGradient>
<linearGradient id="paint2_linear_43_949" x1="133" y1="5.5" x2="1064.5" y2="5.5" gradientUnits="userSpaceOnUse">
<stop stop-color="#6BD1FF" stop-opacity="0"/>
<stop offset="0.500663" stop-color="#6BD1FF"/>
<stop offset="1" stop-color="#6BD1FF" stop-opacity="0"/>
</linearGradient>
</defs>
</svg>
