<svg width="1320" height="885" viewBox="0 0 1320 885" fill="none" xmlns="http://www.w3.org/2000/svg">
<g filter="url(#filter0_b_43_949)">
<rect x="1320" y="885" width="1320" height="880" rx="20" transform="rotate(-180 1320 885)" fill="#3C3C3C" fill-opacity="0.2"/>
<rect x="1320" y="885" width="1320" height="880" rx="20" transform="rotate(-180 1320 885)" fill="url(#paint0_linear_43_949)"/>
</g>
<g filter="url(#filter1_f_43_949)">
<path d="M133 5H1064.5" stroke="url(#paint1_linear_43_949)" stroke-width="2"/>
</g>
<g filter="url(#filter2_f_43_949)">
<path d="M133 5H1064.5" stroke="url(#paint2_linear_43_949)" stroke-width="2"/>
</g>
<ellipse cx="256.25" cy="96.6665" rx="2.375" ry="3.51852" fill="white" fill-opacity="0.04"/>
<ellipse cx="339.375" cy="86.1113" rx="2.375" ry="3.51852" fill="white" fill-opacity="0.04"/>
<ellipse cx="294.25" cy="89.6298" rx="2.375" ry="3.51852" fill="white" fill-opacity="0.04"/>
<ellipse cx="377.375" cy="79.0742" rx="2.375" ry="3.51852" fill="white" fill-opacity="0.04"/>
<ellipse cx="320.375" cy="103.704" rx="2.375" ry="3.51852" fill="white" fill-opacity="0.04"/>
<ellipse cx="403.5" cy="93.1479" rx="2.375" ry="3.51852" fill="white" fill-opacity="0.04"/>
<ellipse cx="479.5" cy="82.5927" rx="2.375" ry="3.51852" fill="white" fill-opacity="0.04"/>
<ellipse cx="265.75" cy="82.5927" rx="2.375" ry="3.51852" fill="white" fill-opacity="0.04"/>
<ellipse cx="424.875" cy="61.4814" rx="2.375" ry="3.51852" fill="white" fill-opacity="0.04"/>
<ellipse cx="303.75" cy="75.5556" rx="2.375" ry="3.51852" fill="white" fill-opacity="0.04"/>
<ellipse cx="462.875" cy="54.4443" rx="2.375" ry="3.51852" fill="white" fill-opacity="0.04"/>
<ellipse cx="329.875" cy="89.6298" rx="2.375" ry="3.51852" fill="white" fill-opacity="0.04"/>
<ellipse cx="413" cy="79.0742" rx="2.375" ry="3.51852" fill="white" fill-opacity="0.04"/>
<ellipse cx="489" cy="68.5185" rx="2.375" ry="3.51852" fill="white" fill-opacity="0.04"/>
<ellipse cx="365.5" cy="86.1113" rx="2.375" ry="3.51852" fill="white" fill-opacity="0.04"/>
<ellipse cx="320.375" cy="89.6298" rx="2.375" ry="3.51852" fill="white" fill-opacity="0.04"/>
<ellipse cx="403.5" cy="79.0742" rx="2.375" ry="3.51852" fill="white" fill-opacity="0.04"/>
<ellipse cx="479.5" cy="68.5185" rx="2.375" ry="3.51852" fill="white" fill-opacity="0.04"/>
<ellipse cx="429.625" cy="93.1479" rx="2.375" ry="3.51852" fill="white" fill-opacity="0.04"/>
<ellipse cx="505.625" cy="82.5927" rx="2.375" ry="3.51852" fill="white" fill-opacity="0.04"/>
<ellipse cx="244.375" cy="82.5927" rx="2.375" ry="3.51852" fill="white" fill-opacity="0.04"/>
<ellipse cx="327.5" cy="72.0371" rx="2.375" ry="3.51852" fill="white" fill-opacity="0.04"/>
<ellipse cx="282.375" cy="75.5556" rx="2.375" ry="3.51852" fill="white" fill-opacity="0.04"/>
<ellipse cx="365.5" cy="65" rx="2.375" ry="3.51852" fill="white" fill-opacity="0.04"/>
<ellipse cx="441.5" cy="54.4443" rx="2.375" ry="3.51852" fill="white" fill-opacity="0.04"/>
<ellipse cx="391.625" cy="79.0742" rx="2.375" ry="3.51852" fill="white" fill-opacity="0.04"/>
<ellipse cx="467.625" cy="68.5185" rx="2.375" ry="3.51852" fill="white" fill-opacity="0.04"/>
<ellipse cx="550.25" cy="93.7036" rx="2.375" ry="3.51852" fill="white" fill-opacity="0.04"/>
<ellipse cx="633.375" cy="83.1479" rx="2.375" ry="3.51852" fill="white" fill-opacity="0.04"/>
<ellipse cx="588.25" cy="86.6665" rx="2.375" ry="3.51852" fill="white" fill-opacity="0.04"/>
<ellipse cx="671.375" cy="76.1113" rx="2.375" ry="3.51852" fill="white" fill-opacity="0.04"/>
<ellipse cx="614.375" cy="100.741" rx="2.375" ry="3.51852" fill="white" fill-opacity="0.04"/>
<ellipse cx="697.5" cy="90.185" rx="2.375" ry="3.51852" fill="white" fill-opacity="0.04"/>
<ellipse cx="773.5" cy="79.6298" rx="2.375" ry="3.51852" fill="white" fill-opacity="0.04"/>
<ellipse cx="559.75" cy="79.6298" rx="2.375" ry="3.51852" fill="white" fill-opacity="0.04"/>
<ellipse cx="718.875" cy="58.5185" rx="2.375" ry="3.51852" fill="white" fill-opacity="0.04"/>
<ellipse cx="597.75" cy="72.5927" rx="2.375" ry="3.51852" fill="white" fill-opacity="0.04"/>
<ellipse cx="756.875" cy="51.4814" rx="2.375" ry="3.51852" fill="white" fill-opacity="0.04"/>
<ellipse cx="623.875" cy="86.6665" rx="2.375" ry="3.51852" fill="white" fill-opacity="0.04"/>
<ellipse cx="707" cy="76.1113" rx="2.375" ry="3.51852" fill="white" fill-opacity="0.04"/>
<ellipse cx="783" cy="65.5556" rx="2.375" ry="3.51852" fill="white" fill-opacity="0.04"/>
<ellipse cx="659.5" cy="83.1479" rx="2.375" ry="3.51852" fill="white" fill-opacity="0.04"/>
<ellipse cx="614.375" cy="86.6665" rx="2.375" ry="3.51852" fill="white" fill-opacity="0.04"/>
<ellipse cx="697.5" cy="76.1113" rx="2.375" ry="3.51852" fill="white" fill-opacity="0.04"/>
<ellipse cx="773.5" cy="65.5556" rx="2.375" ry="3.51852" fill="white" fill-opacity="0.04"/>
<ellipse cx="723.625" cy="90.185" rx="2.375" ry="3.51852" fill="white" fill-opacity="0.04"/>
<ellipse cx="799.625" cy="79.6298" rx="2.375" ry="3.51852" fill="white" fill-opacity="0.04"/>
<ellipse cx="538.375" cy="79.6298" rx="2.375" ry="3.51852" fill="white" fill-opacity="0.04"/>
<ellipse cx="621.5" cy="69.0742" rx="2.375" ry="3.51852" fill="white" fill-opacity="0.04"/>
<ellipse cx="576.375" cy="72.5927" rx="2.375" ry="3.51852" fill="white" fill-opacity="0.04"/>
<ellipse cx="659.5" cy="62.0371" rx="2.375" ry="3.51852" fill="white" fill-opacity="0.04"/>
<ellipse cx="735.5" cy="51.4814" rx="2.375" ry="3.51852" fill="white" fill-opacity="0.04"/>
<ellipse cx="685.625" cy="76.1113" rx="2.375" ry="3.51852" fill="white" fill-opacity="0.04"/>
<ellipse cx="761.625" cy="65.5556" rx="2.375" ry="3.51852" fill="white" fill-opacity="0.04"/>
<ellipse cx="830.25" cy="93.7036" rx="2.375" ry="3.51852" fill="white" fill-opacity="0.04"/>
<ellipse cx="913.375" cy="83.1479" rx="2.375" ry="3.51852" fill="white" fill-opacity="0.04"/>
<ellipse cx="868.25" cy="86.6665" rx="2.375" ry="3.51852" fill="white" fill-opacity="0.04"/>
<ellipse cx="951.375" cy="76.1113" rx="2.375" ry="3.51852" fill="white" fill-opacity="0.04"/>
<ellipse cx="894.375" cy="100.741" rx="2.375" ry="3.51852" fill="white" fill-opacity="0.04"/>
<ellipse cx="839.75" cy="79.6298" rx="2.375" ry="3.51852" fill="white" fill-opacity="0.04"/>
<ellipse cx="877.75" cy="72.5927" rx="2.375" ry="3.51852" fill="white" fill-opacity="0.04"/>
<ellipse cx="903.875" cy="86.6665" rx="2.375" ry="3.51852" fill="white" fill-opacity="0.04"/>
<ellipse cx="939.5" cy="83.1479" rx="2.375" ry="3.51852" fill="white" fill-opacity="0.04"/>
<ellipse cx="894.375" cy="86.6665" rx="2.375" ry="3.51852" fill="white" fill-opacity="0.04"/>
<ellipse cx="818.375" cy="79.6298" rx="2.375" ry="3.51852" fill="white" fill-opacity="0.04"/>
<ellipse cx="901.5" cy="69.0742" rx="2.375" ry="3.51852" fill="white" fill-opacity="0.04"/>
<ellipse cx="856.375" cy="72.5927" rx="2.375" ry="3.51852" fill="white" fill-opacity="0.04"/>
<ellipse cx="939.5" cy="62.0371" rx="2.375" ry="3.51852" fill="white" fill-opacity="0.04"/>
<ellipse cx="965.625" cy="76.1113" rx="2.375" ry="3.51852" fill="white" fill-opacity="0.04"/>
<defs>
<filter id="filter0_b_43_949" x="-55.3" y="-50.3" width="1430.6" height="990.6" filterUnits="userSpaceOnUse" color-interpolation-filters="sRGB">
<feFlood flood-opacity="0" result="BackgroundImageFix"/>
<feGaussianBlur in="BackgroundImageFix" stdDeviation="27.65"/>
<feComposite in2="SourceAlpha" operator="in" result="effect1_backgroundBlur_43_949"/>
<feBlend mode="normal" in="SourceGraphic" in2="effect1_backgroundBlur_43_949" result="shape"/>
</filter>
<filter id="filter1_f_43_949" x="129" y="0" width="939.5" height="10" filterUnits="userSpaceOnUse" color-interpolation-filters="sRGB">
<feFlood flood-opacity="0" result="BackgroundImageFix"/>
<feBlend mode="normal" in="SourceGraphic" in2="BackgroundImageFix" result="shape"/>
<feGaussianBlur stdDeviation="2" result="effect1_foregroundBlur_43_949"/>
</filter>
<filter id="filter2_f_43_949" x="129" y="0" width="939.5" height="10" filterUnits="userSpaceOnUse" color-interpolation-filters="sRGB">
<feFlood flood-opacity="0" result="BackgroundImageFix"/>
<feBlend mode="normal" in="SourceGraphic" in2="BackgroundImageFix" result="shape"/>
<feGaussianBlur stdDeviation="2" result="effect1_foregroundBlur_43_949"/>
</filter>
<linearGradient id="paint0_linear_43_949" x1="2002.5" y1="1318.62" x2="2002.5" y2="3225.29" gradientUnits="userSpaceOnUse">
<stop stop-color="#0A1620" stop-opacity="0"/>
<stop offset="0.36789" stop-color="#2888D7"/>
</linearGradient>
<linearGradient id="paint1_linear_43_949" x1="133" y1="5.5" x2="1064.5" y2="5.5" gradientUnits="userSpaceOnUse">
<stop stop-color="#6BD1FF" stop-opacity="0"/>
<stop offset="0.500663" stop-color="#6BD1FF"/>
<stop offset="1" stop-color="#6BD1FF" stop-opacity="0"/>
</linearGradient>
<linearGradient id="paint2_linear_43_949" x1="133" y1="5.5" x2="1064.5" y2="5.5" gradientUnits="userSpaceOnUse">
<stop stop-color="#6BD1FF" stop-opacity="0"/>
<stop offset="0.500663" stop-color="#6BD1FF"/>
<stop offset="1" stop-color="#6BD1FF" stop-opacity="0"/>
</linearGradient>
</defs>
</svg>
