<svg width="176" height="39" viewBox="0 0 176 39" fill="none" xmlns="http://www.w3.org/2000/svg">
<path fill-rule="evenodd" clip-rule="evenodd" d="M3.50174 0.445629L3.85674 0.446743L11.5702 0.470949V2.18506L4.21175 2.16197L1.71411 4.65179V12.4389L0 12.4335V4.29141V3.9364L0.251026 3.68616L3.25071 0.695869L3.50174 0.445629ZM172.284 38.2512L171.929 38.2501L164.216 38.2259V36.5118L171.574 36.5348L174.072 34.0451V26.258L175.786 26.2634V34.4055V34.7604L175.535 35.0107L172.535 38.0009L172.284 38.2512ZM0 34.0742V34.4292L0.251026 34.681L3.25071 37.6902L3.50174 37.942L3.85674 37.9431L11.9987 37.9686V36.2545L4.21175 36.2301L1.71411 33.7246V26.3661L0 26.3607V34.0742ZM176 4.05406V4.40907V12.1226L174.286 12.1172V4.7587L171.788 2.25321L164.001 2.22877V0.514654L172.143 0.540205L172.498 0.541319L172.749 0.793133L175.749 3.80225L176 4.05406Z" fill="white"/>
</svg>
