<svg width="203" height="59" viewBox="0 0 203 59" fill="none" xmlns="http://www.w3.org/2000/svg">
<rect width="203" height="59" rx="29.5" fill="url(#paint0_linear_38_518)"/>
<circle cx="49" cy="53" r="1" fill="white" fill-opacity="0.1"/>
<circle cx="84" cy="50" r="1" fill="white" fill-opacity="0.1"/>
<circle cx="65" cy="51" r="1" fill="white" fill-opacity="0.1"/>
<circle cx="100" cy="48" r="1" fill="white" fill-opacity="0.1"/>
<circle cx="76" cy="55" r="1" fill="white" fill-opacity="0.1"/>
<circle cx="111" cy="52" r="1" fill="white" fill-opacity="0.1"/>
<circle cx="143" cy="49" r="1" fill="white" fill-opacity="0.1"/>
<circle cx="53" cy="49" r="1" fill="white" fill-opacity="0.1"/>
<circle cx="120" cy="43" r="1" fill="white" fill-opacity="0.1"/>
<circle cx="69" cy="47" r="1" fill="white" fill-opacity="0.1"/>
<circle cx="136" cy="41" r="1" fill="white" fill-opacity="0.1"/>
<circle cx="80" cy="51" r="1" fill="white" fill-opacity="0.1"/>
<circle cx="115" cy="48" r="1" fill="white" fill-opacity="0.1"/>
<circle cx="147" cy="45" r="1" fill="white" fill-opacity="0.1"/>
<circle cx="95" cy="50" r="1" fill="white" fill-opacity="0.1"/>
<circle cx="76" cy="51" r="1" fill="white" fill-opacity="0.1"/>
<circle cx="111" cy="48" r="1" fill="white" fill-opacity="0.1"/>
<circle cx="143" cy="45" r="1" fill="white" fill-opacity="0.1"/>
<circle cx="122" cy="52" r="1" fill="white" fill-opacity="0.1"/>
<circle cx="154" cy="49" r="1" fill="white" fill-opacity="0.1"/>
<circle cx="44" cy="49" r="1" fill="white" fill-opacity="0.1"/>
<circle cx="79" cy="46" r="1" fill="white" fill-opacity="0.1"/>
<circle cx="60" cy="47" r="1" fill="white" fill-opacity="0.1"/>
<circle cx="95" cy="44" r="1" fill="white" fill-opacity="0.1"/>
<circle cx="127" cy="41" r="1" fill="white" fill-opacity="0.1"/>
<circle cx="106" cy="48" r="1" fill="white" fill-opacity="0.1"/>
<circle cx="138" cy="45" r="1" fill="white" fill-opacity="0.1"/>
<defs>
<linearGradient id="paint0_linear_38_518" x1="117" y1="-11.5" x2="117" y2="103.5" gradientUnits="userSpaceOnUse">
<stop offset="0.258633" stop-color="#000409"/>
<stop offset="1" stop-color="#6DBEFF"/>
</linearGradient>
</defs>
</svg>
