<svg width="168" height="69" viewBox="0 0 168 69" fill="none" xmlns="http://www.w3.org/2000/svg">
<path d="M47.0815 13.4287H56.3908V24.6105" stroke="url(#paint0_linear_40_765)" stroke-width="1.07003" stroke-linecap="round" stroke-linejoin="round"/>
<path d="M55.1598 14.6058L47.4021 22.2566" stroke="url(#paint1_linear_40_765)" stroke-width="1.07003" stroke-linecap="round" stroke-linejoin="round"/>
<path d="M54.4112 53.1273L46.7605 45.53" stroke="url(#paint2_linear_40_765)" stroke-width="1.07003" stroke-linecap="round" stroke-linejoin="round"/>
<path d="M15.4622 14.6058L22.5779 21.2935" stroke="url(#paint3_linear_40_765)" stroke-width="1.07003" stroke-linecap="round" stroke-linejoin="round"/>
<path d="M16.0503 52.806L23.1125 45.9043" stroke="url(#paint4_linear_40_765)" stroke-width="1.07003" stroke-linecap="round" stroke-linejoin="round"/>
<path d="M35.1506 6.84802V28.9977" stroke="url(#paint5_linear_40_765)" stroke-width="1.07003" stroke-linecap="round" stroke-linejoin="round"/>
<path d="M35.2039 61.1521V38.3605" stroke="url(#paint6_linear_40_765)" stroke-width="1.07003" stroke-linecap="round" stroke-linejoin="round"/>
<path d="M7.75781 34.1877H23.2733" stroke="url(#paint7_linear_40_765)" stroke-width="1.07003" stroke-linecap="round" stroke-linejoin="round"/>
<path d="M64.5231 34.1339H47.0281" stroke="url(#paint8_linear_40_765)" stroke-width="1.07003" stroke-linecap="round" stroke-linejoin="round"/>
<path d="M46.7068 54.6254H56.6046V42.3735" stroke="url(#paint9_linear_40_765)" stroke-width="1.07003" stroke-linecap="round" stroke-linejoin="round"/>
<path d="M13.6963 42.6946V54.5719H24.9316" stroke="url(#paint10_linear_40_765)" stroke-width="1.07003" stroke-linecap="round" stroke-linejoin="round"/>
<path d="M13.9104 24.4501V13.5358H24.6642" stroke="url(#paint11_linear_40_765)" stroke-width="1.07003" stroke-linecap="round" stroke-linejoin="round"/>
<path d="M4.44043 33.9737L35.2038 64.5766L65.5927 33.9737L35.2038 3.42432L4.44043 33.9737Z" stroke="url(#paint12_linear_40_765)" stroke-width="1.07003" stroke-linecap="round" stroke-linejoin="round"/>
<path d="M23.9688 22.6847L47.7235 45.9044" stroke="url(#paint13_linear_40_765)" stroke-width="1.49804" stroke-linecap="round" stroke-linejoin="round"/>
<path d="M23.4336 23.9688L23.4336 45.0484" stroke="url(#paint14_linear_40_765)" stroke-width="1.49804" stroke-linecap="round" stroke-linejoin="round"/>
<path d="M46.9741 23.9688L46.9741 43.4433" stroke="url(#paint15_linear_40_765)" stroke-width="1.49804" stroke-linecap="round" stroke-linejoin="round"/>
<circle cx="23.3802" cy="44.9951" r="1.97956" fill="url(#paint16_linear_40_765)"/>
<circle cx="46.921" cy="44.9951" r="1.97956" fill="url(#paint17_linear_40_765)"/>
<circle cx="23.3802" cy="22.631" r="1.97956" fill="url(#paint18_linear_40_765)"/>
<circle cx="24.5574" cy="13.536" r="1.97956" fill="url(#paint19_linear_40_765)"/>
<circle cx="13.857" cy="24.6643" r="1.97956" fill="url(#paint20_linear_40_765)"/>
<circle cx="13.857" cy="42.213" r="1.97956" fill="url(#paint21_linear_40_765)"/>
<circle cx="25.3062" cy="54.5183" r="1.97956" fill="url(#paint22_linear_40_765)"/>
<circle cx="45.744" cy="54.5183" r="1.97956" fill="url(#paint23_linear_40_765)"/>
<circle cx="56.5511" cy="42.213" r="1.97956" fill="url(#paint24_linear_40_765)"/>
<circle cx="56.5511" cy="24.6643" r="1.97956" fill="url(#paint25_linear_40_765)"/>
<circle cx="45.744" cy="13.536" r="1.97956" fill="url(#paint26_linear_40_765)"/>
<circle cx="46.921" cy="22.631" r="1.97956" fill="url(#paint27_linear_40_765)"/>
<circle cx="35.1503" cy="34.4017" r="30.5494" stroke="url(#paint28_linear_40_765)" stroke-width="1.07003"/>
<circle cx="35.1506" cy="4.01262" r="3.4776" fill="#181F29" stroke="url(#paint29_linear_40_765)" stroke-width="1.07003"/>
<circle cx="56.5512" cy="13.0008" r="3.4776" fill="#181F29" stroke="url(#paint30_linear_40_765)" stroke-width="1.07003"/>
<circle cx="65.5392" cy="34.4019" r="3.4776" fill="#181F29" stroke="url(#paint31_linear_40_765)" stroke-width="1.07003"/>
<circle cx="56.5512" cy="55.8023" r="3.4776" fill="#181F29" stroke="url(#paint32_linear_40_765)" stroke-width="1.07003"/>
<circle cx="35.2575" cy="64.4694" r="3.4776" fill="#181F29" stroke="url(#paint33_linear_40_765)" stroke-width="1.07003"/>
<circle cx="13.3219" cy="55.1603" r="3.4776" fill="#181F29" stroke="url(#paint34_linear_40_765)" stroke-width="1.07003"/>
<circle cx="4.01262" cy="34.4019" r="3.4776" fill="#181F29" stroke="url(#paint35_linear_40_765)" stroke-width="1.07003"/>
<circle cx="13.3219" cy="13.0008" r="3.4776" fill="#181F29" stroke="url(#paint36_linear_40_765)" stroke-width="1.07003"/>
<path d="M96.6763 23.622V43.241H92.9573L84.6166 29.6317V43.241H80.911V23.622H84.6166L92.9842 37.2448V23.622H96.6763ZM113.452 40.3305V43.241H103.023V40.3305H113.452ZM104.155 23.622V43.241H100.449V23.622H104.155ZM112.091 31.7202V34.5634H103.023V31.7202H112.091ZM113.412 23.622V26.546H103.023V23.622H113.412ZM118.977 23.622L122.898 30.6153L126.832 23.622H131.09L125.269 33.3506L131.238 43.241H126.94L122.898 36.1129L118.869 43.241H114.557L120.526 33.3506L114.705 23.622H118.977ZM144.43 23.622H148.136V36.6519C148.136 38.1521 147.812 39.4142 147.165 40.4383C146.519 41.4533 145.638 42.2214 144.524 42.7424C143.411 43.2544 142.144 43.5105 140.725 43.5105C139.287 43.5105 138.007 43.2544 136.884 42.7424C135.761 42.2214 134.881 41.4533 134.243 40.4383C133.606 39.4142 133.287 38.1521 133.287 36.6519V23.622H136.992V36.6519C136.992 37.5682 137.145 38.3183 137.45 38.9022C137.756 39.4771 138.187 39.9038 138.744 40.1822C139.301 40.4607 139.961 40.6 140.725 40.6C141.497 40.6 142.157 40.4607 142.705 40.1822C143.262 39.9038 143.689 39.4771 143.985 38.9022C144.282 38.3183 144.43 37.5682 144.43 36.6519V23.622ZM161.92 38.1476C161.92 37.7703 161.862 37.4334 161.745 37.137C161.637 36.8316 161.435 36.5576 161.139 36.315C160.851 36.0635 160.442 35.821 159.912 35.5874C159.391 35.3449 158.718 35.0934 157.891 34.8328C156.975 34.5454 156.122 34.222 155.331 33.8627C154.54 33.5034 153.844 33.0856 153.242 32.6095C152.65 32.1334 152.187 31.5855 151.855 30.9657C151.522 30.3368 151.356 29.6092 151.356 28.7828C151.356 27.9743 151.527 27.2377 151.868 26.5729C152.218 25.9082 152.712 25.3378 153.35 24.8617C153.988 24.3766 154.738 24.0038 155.6 23.7433C156.472 23.4828 157.433 23.3525 158.484 23.3525C159.939 23.3525 161.197 23.6175 162.257 24.1475C163.326 24.6775 164.152 25.3962 164.736 26.3035C165.32 27.2107 165.612 28.2303 165.612 29.3622H161.92C161.92 28.7513 161.79 28.2124 161.529 27.7452C161.278 27.2781 160.891 26.9098 160.37 26.6403C159.858 26.3708 159.212 26.2361 158.43 26.2361C157.676 26.2361 157.047 26.3484 156.544 26.5729C156.05 26.7975 155.677 27.1029 155.425 27.4892C155.183 27.8755 155.062 28.3067 155.062 28.7828C155.062 29.1421 155.147 29.4655 155.318 29.7529C155.488 30.0314 155.744 30.2964 156.086 30.5479C156.427 30.7905 156.849 31.0195 157.352 31.2351C157.864 31.4418 158.457 31.6484 159.131 31.855C160.209 32.1784 161.152 32.5377 161.96 32.9329C162.778 33.3282 163.456 33.7773 163.995 34.2804C164.543 34.7834 164.952 35.3494 165.221 35.9782C165.5 36.607 165.639 37.3211 165.639 38.1206C165.639 38.965 165.473 39.7196 165.14 40.3844C164.808 41.0491 164.332 41.615 163.712 42.0822C163.092 42.5493 162.347 42.9041 161.475 43.1466C160.613 43.3892 159.647 43.5105 158.578 43.5105C157.626 43.5105 156.683 43.3847 155.749 43.1332C154.823 42.8727 153.984 42.4864 153.229 41.9744C152.474 41.4533 151.873 40.7976 151.423 40.0071C150.974 39.2076 150.75 38.2733 150.75 37.2044H154.469C154.469 37.8242 154.567 38.3542 154.765 38.7944C154.972 39.2256 155.259 39.5804 155.627 39.8589C156.005 40.1283 156.445 40.326 156.948 40.4517C157.451 40.5775 157.994 40.6404 158.578 40.6404C159.333 40.6404 159.953 40.5371 160.438 40.3305C160.932 40.1149 161.3 39.8184 161.543 39.4411C161.794 39.0639 161.92 38.6327 161.92 38.1476Z" fill="white"/>
<defs>
<linearGradient id="paint0_linear_40_765" x1="47.0815" y1="19.0196" x2="56.3908" y2="19.0196" gradientUnits="userSpaceOnUse">
<stop stop-color="#69F5FF"/>
<stop offset="1" stop-color="#7098FF"/>
</linearGradient>
<linearGradient id="paint1_linear_40_765" x1="47.4021" y1="18.4312" x2="55.1598" y2="18.4312" gradientUnits="userSpaceOnUse">
<stop stop-color="#69F5FF"/>
<stop offset="1" stop-color="#7098FF"/>
</linearGradient>
<linearGradient id="paint2_linear_40_765" x1="46.7605" y1="49.3286" x2="54.4112" y2="49.3286" gradientUnits="userSpaceOnUse">
<stop stop-color="#69F5FF"/>
<stop offset="1" stop-color="#7098FF"/>
</linearGradient>
<linearGradient id="paint3_linear_40_765" x1="15.4622" y1="17.9497" x2="22.5779" y2="17.9497" gradientUnits="userSpaceOnUse">
<stop stop-color="#69F5FF"/>
<stop offset="1" stop-color="#7098FF"/>
</linearGradient>
<linearGradient id="paint4_linear_40_765" x1="16.0503" y1="49.3551" x2="23.1125" y2="49.3551" gradientUnits="userSpaceOnUse">
<stop stop-color="#69F5FF"/>
<stop offset="1" stop-color="#7098FF"/>
</linearGradient>
<linearGradient id="paint5_linear_40_765" x1="35.6521" y1="29.3722" x2="35.6121" y2="6.30699" gradientUnits="userSpaceOnUse">
<stop stop-color="#69F5FF"/>
<stop offset="1" stop-color="#7098FF"/>
</linearGradient>
<linearGradient id="paint6_linear_40_765" x1="39.7037" y1="65.0578" x2="39.6521" y2="37.924" gradientUnits="userSpaceOnUse">
<stop stop-color="#69F5FF"/>
<stop offset="1" stop-color="#7098FF"/>
</linearGradient>
<linearGradient id="paint7_linear_40_765" x1="7.75781" y1="34.6877" x2="23.2733" y2="34.6877" gradientUnits="userSpaceOnUse">
<stop stop-color="#69F5FF"/>
<stop offset="1" stop-color="#7098FF"/>
</linearGradient>
<linearGradient id="paint8_linear_40_765" x1="47.0281" y1="34.6339" x2="64.5231" y2="34.6339" gradientUnits="userSpaceOnUse">
<stop stop-color="#69F5FF"/>
<stop offset="1" stop-color="#7098FF"/>
</linearGradient>
<linearGradient id="paint9_linear_40_765" x1="46.7068" y1="48.4995" x2="56.6046" y2="48.4995" gradientUnits="userSpaceOnUse">
<stop stop-color="#69F5FF"/>
<stop offset="1" stop-color="#7098FF"/>
</linearGradient>
<linearGradient id="paint10_linear_40_765" x1="13.6963" y1="48.6333" x2="24.9316" y2="48.6333" gradientUnits="userSpaceOnUse">
<stop stop-color="#69F5FF"/>
<stop offset="1" stop-color="#7098FF"/>
</linearGradient>
<linearGradient id="paint11_linear_40_765" x1="13.9104" y1="18.9929" x2="24.6642" y2="18.9929" gradientUnits="userSpaceOnUse">
<stop stop-color="#69F5FF"/>
<stop offset="1" stop-color="#7098FF"/>
</linearGradient>
<linearGradient id="paint12_linear_40_765" x1="4.44043" y1="34.0005" x2="65.5927" y2="34.0005" gradientUnits="userSpaceOnUse">
<stop stop-color="#69F5FF"/>
<stop offset="1" stop-color="#7098FF"/>
</linearGradient>
<linearGradient id="paint13_linear_40_765" x1="23.9688" y1="34.2945" x2="47.7235" y2="34.2945" gradientUnits="userSpaceOnUse">
<stop stop-color="#69F5FF"/>
<stop offset="1" stop-color="#7098FF"/>
</linearGradient>
<linearGradient id="paint14_linear_40_765" x1="23.4335" y1="23.2368" x2="23.3906" y2="45.2718" gradientUnits="userSpaceOnUse">
<stop stop-color="#69F5FF"/>
<stop offset="1" stop-color="#7098FF"/>
</linearGradient>
<linearGradient id="paint15_linear_40_765" x1="43.9741" y1="23.9688" x2="44.029" y2="44.3303" gradientUnits="userSpaceOnUse">
<stop stop-color="#69F5FF"/>
<stop offset="1" stop-color="#7098FF"/>
</linearGradient>
<linearGradient id="paint16_linear_40_765" x1="21.4006" y1="44.9951" x2="25.3598" y2="44.9951" gradientUnits="userSpaceOnUse">
<stop stop-color="#69F5FF"/>
<stop offset="1" stop-color="#7098FF"/>
</linearGradient>
<linearGradient id="paint17_linear_40_765" x1="44.9414" y1="44.9951" x2="48.9005" y2="44.9951" gradientUnits="userSpaceOnUse">
<stop stop-color="#69F5FF"/>
<stop offset="1" stop-color="#7098FF"/>
</linearGradient>
<linearGradient id="paint18_linear_40_765" x1="21.4006" y1="22.631" x2="25.3598" y2="22.631" gradientUnits="userSpaceOnUse">
<stop stop-color="#69F5FF"/>
<stop offset="1" stop-color="#7098FF"/>
</linearGradient>
<linearGradient id="paint19_linear_40_765" x1="22.5779" y1="13.536" x2="26.537" y2="13.536" gradientUnits="userSpaceOnUse">
<stop stop-color="#69F5FF"/>
<stop offset="1" stop-color="#7098FF"/>
</linearGradient>
<linearGradient id="paint20_linear_40_765" x1="11.8774" y1="24.6643" x2="15.8366" y2="24.6643" gradientUnits="userSpaceOnUse">
<stop stop-color="#69F5FF"/>
<stop offset="1" stop-color="#7098FF"/>
</linearGradient>
<linearGradient id="paint21_linear_40_765" x1="11.8774" y1="42.213" x2="15.8366" y2="42.213" gradientUnits="userSpaceOnUse">
<stop stop-color="#69F5FF"/>
<stop offset="1" stop-color="#7098FF"/>
</linearGradient>
<linearGradient id="paint22_linear_40_765" x1="23.3267" y1="54.5183" x2="27.2858" y2="54.5183" gradientUnits="userSpaceOnUse">
<stop stop-color="#69F5FF"/>
<stop offset="1" stop-color="#7098FF"/>
</linearGradient>
<linearGradient id="paint23_linear_40_765" x1="43.7644" y1="54.5183" x2="47.7235" y2="54.5183" gradientUnits="userSpaceOnUse">
<stop stop-color="#69F5FF"/>
<stop offset="1" stop-color="#7098FF"/>
</linearGradient>
<linearGradient id="paint24_linear_40_765" x1="54.5715" y1="42.213" x2="58.5306" y2="42.213" gradientUnits="userSpaceOnUse">
<stop stop-color="#69F5FF"/>
<stop offset="1" stop-color="#7098FF"/>
</linearGradient>
<linearGradient id="paint25_linear_40_765" x1="54.5715" y1="24.6643" x2="58.5306" y2="24.6643" gradientUnits="userSpaceOnUse">
<stop stop-color="#69F5FF"/>
<stop offset="1" stop-color="#7098FF"/>
</linearGradient>
<linearGradient id="paint26_linear_40_765" x1="43.7644" y1="13.536" x2="47.7235" y2="13.536" gradientUnits="userSpaceOnUse">
<stop stop-color="#69F5FF"/>
<stop offset="1" stop-color="#7098FF"/>
</linearGradient>
<linearGradient id="paint27_linear_40_765" x1="44.9414" y1="22.631" x2="48.9005" y2="22.631" gradientUnits="userSpaceOnUse">
<stop stop-color="#69F5FF"/>
<stop offset="1" stop-color="#7098FF"/>
</linearGradient>
<linearGradient id="paint28_linear_40_765" x1="4.06592" y1="34.4017" x2="66.2347" y2="34.4017" gradientUnits="userSpaceOnUse">
<stop stop-color="#69F5FF"/>
<stop offset="1" stop-color="#7098FF"/>
</linearGradient>
<linearGradient id="paint29_linear_40_765" x1="31.1379" y1="4.01262" x2="39.1632" y2="4.01262" gradientUnits="userSpaceOnUse">
<stop stop-color="#69F5FF"/>
<stop offset="1" stop-color="#7098FF"/>
</linearGradient>
<linearGradient id="paint30_linear_40_765" x1="52.5386" y1="13.0008" x2="60.5638" y2="13.0008" gradientUnits="userSpaceOnUse">
<stop stop-color="#69F5FF"/>
<stop offset="1" stop-color="#7098FF"/>
</linearGradient>
<linearGradient id="paint31_linear_40_765" x1="61.5266" y1="34.4019" x2="69.5518" y2="34.4019" gradientUnits="userSpaceOnUse">
<stop stop-color="#69F5FF"/>
<stop offset="1" stop-color="#7098FF"/>
</linearGradient>
<linearGradient id="paint32_linear_40_765" x1="52.5386" y1="55.8023" x2="60.5638" y2="55.8023" gradientUnits="userSpaceOnUse">
<stop stop-color="#69F5FF"/>
<stop offset="1" stop-color="#7098FF"/>
</linearGradient>
<linearGradient id="paint33_linear_40_765" x1="31.2449" y1="64.4694" x2="39.2701" y2="64.4694" gradientUnits="userSpaceOnUse">
<stop stop-color="#69F5FF"/>
<stop offset="1" stop-color="#7098FF"/>
</linearGradient>
<linearGradient id="paint34_linear_40_765" x1="9.30933" y1="55.1603" x2="17.3346" y2="55.1603" gradientUnits="userSpaceOnUse">
<stop stop-color="#69F5FF"/>
<stop offset="1" stop-color="#7098FF"/>
</linearGradient>
<linearGradient id="paint35_linear_40_765" x1="0" y1="34.4019" x2="8.02524" y2="34.4019" gradientUnits="userSpaceOnUse">
<stop stop-color="#69F5FF"/>
<stop offset="1" stop-color="#7098FF"/>
</linearGradient>
<linearGradient id="paint36_linear_40_765" x1="9.30933" y1="13.0008" x2="17.3346" y2="13.0008" gradientUnits="userSpaceOnUse">
<stop stop-color="#69F5FF"/>
<stop offset="1" stop-color="#7098FF"/>
</linearGradient>
</defs>
</svg>
