<svg width="1292" height="623" viewBox="0 0 1292 623" fill="none" xmlns="http://www.w3.org/2000/svg">
<path d="M738.826 273.325H760.542V299.408" stroke="url(#paint0_linear_80_1828)" stroke-width="2.49604" stroke-linecap="round" stroke-linejoin="round"/>
<path d="M757.67 276.07L739.574 293.917" stroke="url(#paint1_linear_80_1828)" stroke-width="2.49604" stroke-linecap="round" stroke-linejoin="round"/>
<path d="M755.924 365.929L738.077 348.207" stroke="url(#paint2_linear_80_1828)" stroke-width="2.49604" stroke-linecap="round" stroke-linejoin="round"/>
<path d="M665.068 276.07L681.667 291.671" stroke="url(#paint3_linear_80_1828)" stroke-width="2.49604" stroke-linecap="round" stroke-linejoin="round"/>
<path d="M666.44 365.18L682.914 349.08" stroke="url(#paint4_linear_80_1828)" stroke-width="2.49604" stroke-linecap="round" stroke-linejoin="round"/>
<path d="M710.995 257.975V309.643" stroke="url(#paint5_linear_80_1828)" stroke-width="2.49604" stroke-linecap="round" stroke-linejoin="round"/>
<path d="M711.119 384.649V331.483" stroke="url(#paint6_linear_80_1828)" stroke-width="2.49604" stroke-linecap="round" stroke-linejoin="round"/>
<path d="M647.096 321.749H683.289" stroke="url(#paint7_linear_80_1828)" stroke-width="2.49604" stroke-linecap="round" stroke-linejoin="round"/>
<path d="M779.511 321.624H738.701" stroke="url(#paint8_linear_80_1828)" stroke-width="2.49604" stroke-linecap="round" stroke-linejoin="round"/>
<path d="M737.952 369.423H761.04V340.844" stroke="url(#paint9_linear_80_1828)" stroke-width="2.49604" stroke-linecap="round" stroke-linejoin="round"/>
<path d="M660.949 341.593V369.299H687.158" stroke="url(#paint10_linear_80_1828)" stroke-width="2.49604" stroke-linecap="round" stroke-linejoin="round"/>
<path d="M661.448 299.034V273.574H686.533" stroke="url(#paint11_linear_80_1828)" stroke-width="2.49604" stroke-linecap="round" stroke-linejoin="round"/>
<path d="M639.358 321.25L711.119 392.637L782.007 321.25L711.119 249.988L639.358 321.25Z" stroke="url(#paint12_linear_80_1828)" stroke-width="2.49604" stroke-linecap="round" stroke-linejoin="round"/>
<path d="M684.911 294.916L740.323 349.08" stroke="url(#paint13_linear_80_1828)" stroke-width="3.49446" stroke-linecap="round" stroke-linejoin="round"/>
<path d="M683.663 297.912L683.663 347.084" stroke="url(#paint14_linear_80_1828)" stroke-width="3.49446" stroke-linecap="round" stroke-linejoin="round"/>
<path d="M738.576 297.912L738.576 343.34" stroke="url(#paint15_linear_80_1828)" stroke-width="3.49446" stroke-linecap="round" stroke-linejoin="round"/>
<circle cx="683.539" cy="346.959" r="4.61767" fill="url(#paint16_linear_80_1828)"/>
<circle cx="738.452" cy="346.959" r="4.61767" fill="url(#paint17_linear_80_1828)"/>
<circle cx="683.539" cy="294.791" r="4.61767" fill="url(#paint18_linear_80_1828)"/>
<circle cx="686.285" cy="273.575" r="4.61767" fill="url(#paint19_linear_80_1828)"/>
<circle cx="661.324" cy="299.534" r="4.61767" fill="url(#paint20_linear_80_1828)"/>
<circle cx="661.324" cy="340.469" r="4.61767" fill="url(#paint21_linear_80_1828)"/>
<circle cx="688.031" cy="369.173" r="4.61767" fill="url(#paint22_linear_80_1828)"/>
<circle cx="735.706" cy="369.173" r="4.61767" fill="url(#paint23_linear_80_1828)"/>
<circle cx="760.916" cy="340.469" r="4.61767" fill="url(#paint24_linear_80_1828)"/>
<circle cx="760.916" cy="299.534" r="4.61767" fill="url(#paint25_linear_80_1828)"/>
<circle cx="735.706" cy="273.575" r="4.61767" fill="url(#paint26_linear_80_1828)"/>
<circle cx="738.452" cy="294.791" r="4.61767" fill="url(#paint27_linear_80_1828)"/>
<circle cx="710.994" cy="322.248" r="71.2619" stroke="url(#paint28_linear_80_1828)" stroke-width="2.49604"/>
<circle cx="710.995" cy="251.36" r="8.11213" fill="#181F29" stroke="url(#paint29_linear_80_1828)" stroke-width="2.49604"/>
<circle cx="760.916" cy="272.327" r="8.11213" fill="#181F29" stroke="url(#paint30_linear_80_1828)" stroke-width="2.49604"/>
<circle cx="781.882" cy="322.248" r="8.11213" fill="#181F29" stroke="url(#paint31_linear_80_1828)" stroke-width="2.49604"/>
<circle cx="760.916" cy="372.169" r="8.11213" fill="#181F29" stroke="url(#paint32_linear_80_1828)" stroke-width="2.49604"/>
<circle cx="711.244" cy="392.387" r="8.11213" fill="#181F29" stroke="url(#paint33_linear_80_1828)" stroke-width="2.49604"/>
<circle cx="660.076" cy="370.671" r="8.11213" fill="#181F29" stroke="url(#paint34_linear_80_1828)" stroke-width="2.49604"/>
<circle cx="638.36" cy="322.248" r="8.11213" fill="#181F29" stroke="url(#paint35_linear_80_1828)" stroke-width="2.49604"/>
<circle cx="660.076" cy="272.327" r="8.11213" fill="#181F29" stroke="url(#paint36_linear_80_1828)" stroke-width="2.49604"/>
<path d="M710.5 27C655.242 27 601.069 42.3127 554.013 71.2329C506.957 100.153 468.866 141.545 443.981 190.8C419.097 240.055 408.396 295.24 413.07 350.207C417.744 405.175 437.61 457.768 470.455 502.131L543.116 448.514C520.212 417.58 506.36 380.906 503.101 342.577C499.841 304.248 507.303 265.768 524.655 231.422C542.007 197.076 568.568 168.213 601.381 148.047C634.193 127.881 671.968 117.203 710.5 117.203V27Z" fill="url(#paint37_linear_80_1828)"/>
<path d="M468.88 150.017C436.96 193.945 417.662 245.741 413.068 299.816C408.474 353.891 418.758 408.192 442.812 456.859C466.865 505.526 503.774 546.713 549.555 575.973C595.337 605.234 648.253 621.458 702.594 622.895L704.987 532.724C667.095 531.722 630.196 520.408 598.273 500.005C566.349 479.601 540.612 450.882 523.84 416.946C507.067 383.01 499.896 345.146 503.099 307.439C506.303 269.732 519.759 233.615 542.017 202.984L468.88 150.017Z" fill="url(#paint38_linear_80_1828)"/>
<path d="M576.186 591.128C616.416 611.364 660.712 622.247 705.754 622.962C750.797 623.677 795.417 614.206 836.271 595.257C877.125 576.308 913.153 548.374 941.655 513.547C970.157 478.721 990.394 437.906 1000.85 394.162C1011.3 350.417 1011.71 304.878 1002.03 260.956C992.344 217.035 972.83 175.87 944.947 140.548C917.064 105.226 881.535 76.6623 841.021 56.9977C800.508 37.3332 756.062 27.0779 711.014 27.0004L710.859 117.203C742.271 117.257 773.263 124.409 801.513 138.121C829.763 151.833 854.538 171.751 873.981 196.381C893.424 221.011 907.031 249.715 913.782 280.342C920.533 310.969 920.252 342.724 912.962 373.227C905.672 403.73 891.56 432.191 871.686 456.475C851.811 480.759 826.688 500.238 798.201 513.451C769.713 526.664 738.599 533.269 707.191 532.771C675.783 532.272 644.895 524.683 616.842 510.572L576.186 591.128Z" fill="url(#paint39_linear_80_1828)"/>
<circle cx="536" cy="95" r="8" fill="white"/>
<circle cx="536" cy="95" r="13.5" stroke="white"/>
<circle cx="488" cy="523" r="8" fill="white"/>
<circle cx="488" cy="523" r="13.5" stroke="white"/>
<circle cx="1009" cy="319" r="8" fill="white"/>
<circle cx="1009" cy="319" r="13.5" stroke="white"/>
<path d="M533.5 92L513.893 53.7206C513.038 52.0506 511.32 51 509.443 51H418.5" stroke="white" stroke-width="2" stroke-linecap="round" stroke-linejoin="round"/>
<path d="M485 526.5L463.816 574.518C463.016 576.331 461.222 577.5 459.241 577.5H241" stroke="white" stroke-width="2" stroke-linecap="round" stroke-linejoin="round"/>
<path d="M1012.5 317L1029.26 273.695C1030.01 271.769 1031.86 270.5 1033.93 270.5H1163.5" stroke="white" stroke-width="2" stroke-linecap="round" stroke-linejoin="round"/>
<path d="M1194.39 287C1194.39 284.76 1194.6 282.44 1195.02 280.04C1195.46 277.608 1196.14 275.192 1197.03 272.792C1197.96 270.392 1199.13 268.104 1200.54 265.928C1201.98 263.72 1203.67 261.736 1205.62 259.976V259.544L1189.26 259.736V255.272H1210.42V260.024C1208.86 261.56 1207.43 263.32 1206.15 265.304C1204.9 267.256 1203.82 269.384 1202.89 271.688C1201.99 273.96 1201.3 276.392 1200.82 278.984C1200.34 281.544 1200.1 284.216 1200.1 287H1194.39ZM1226.81 287.672C1224.86 287.672 1223.09 287.288 1221.49 286.52C1219.89 285.752 1218.51 284.664 1217.36 283.256C1216.24 281.848 1215.37 280.136 1214.77 278.12C1214.16 276.104 1213.85 273.848 1213.85 271.352C1213.85 267.8 1214.41 264.792 1215.53 262.328C1216.65 259.832 1218.19 257.944 1220.14 256.664C1222.13 255.352 1224.38 254.696 1226.91 254.696C1229.57 254.696 1231.85 255.368 1233.77 256.712C1235.69 258.056 1237.17 259.976 1238.19 262.472C1239.25 264.936 1239.77 267.864 1239.77 271.256C1239.77 273.752 1239.47 276.024 1238.86 278.072C1238.25 280.088 1237.37 281.816 1236.22 283.256C1235.07 284.664 1233.69 285.752 1232.09 286.52C1230.53 287.288 1228.77 287.672 1226.81 287.672ZM1226.86 283.304C1227.92 283.304 1228.91 283.064 1229.84 282.584C1230.77 282.104 1231.58 281.384 1232.29 280.424C1232.99 279.432 1233.53 278.184 1233.92 276.68C1234.33 275.144 1234.54 273.336 1234.54 271.256C1234.54 268.696 1234.22 266.504 1233.58 264.68C1232.94 262.856 1232.05 261.464 1230.89 260.504C1229.74 259.512 1228.4 259.016 1226.86 259.016C1225.55 259.016 1224.29 259.432 1223.07 260.264C1221.89 261.064 1220.93 262.36 1220.19 264.152C1219.45 265.912 1219.09 268.248 1219.09 271.16C1219.09 273.208 1219.28 275 1219.66 276.536C1220.05 278.04 1220.59 279.304 1221.29 280.328C1222 281.32 1222.81 282.072 1223.74 282.584C1224.7 283.064 1225.74 283.304 1226.86 283.304ZM1252.75 272.168C1251.12 272.168 1249.63 271.832 1248.28 271.16C1246.94 270.488 1245.87 269.48 1245.07 268.136C1244.3 266.792 1243.92 265.128 1243.92 263.144C1243.92 261.512 1244.16 260.12 1244.64 258.968C1245.15 257.784 1245.82 256.84 1246.65 256.136C1247.52 255.4 1248.48 254.872 1249.53 254.552C1250.62 254.2 1251.72 254.024 1252.84 254.024C1254.54 254.024 1256.04 254.36 1257.36 255.032C1258.7 255.704 1259.76 256.712 1260.52 258.056C1261.32 259.4 1261.72 261.08 1261.72 263.096C1261.72 265.272 1261.28 267.032 1260.38 268.376C1259.52 269.72 1258.4 270.696 1257.02 271.304C1255.68 271.88 1254.25 272.168 1252.75 272.168ZM1252.94 268.088C1253.64 268.088 1254.33 267.928 1255 267.608C1255.68 267.288 1256.22 266.776 1256.64 266.072C1257.08 265.368 1257.31 264.424 1257.31 263.24C1257.31 261.96 1257.07 260.952 1256.59 260.216C1256.11 259.48 1255.52 258.952 1254.81 258.632C1254.14 258.312 1253.44 258.152 1252.7 258.152C1251.96 258.152 1251.26 258.312 1250.59 258.632C1249.95 258.952 1249.42 259.464 1249 260.168C1248.59 260.872 1248.38 261.8 1248.38 262.952C1248.38 264.168 1248.6 265.16 1249.05 265.928C1249.5 266.664 1250.08 267.208 1250.78 267.56C1251.48 267.912 1252.2 268.088 1252.94 268.088ZM1277.61 288.44C1275.95 288.44 1274.44 288.104 1273.1 287.432C1271.76 286.76 1270.7 285.752 1269.93 284.408C1269.16 283.032 1268.78 281.352 1268.78 279.368C1268.78 277.736 1269.02 276.344 1269.5 275.192C1270.01 274.04 1270.68 273.112 1271.52 272.408C1272.38 271.672 1273.34 271.128 1274.4 270.776C1275.48 270.424 1276.59 270.248 1277.71 270.248C1279.37 270.248 1280.86 270.584 1282.17 271.256C1283.52 271.928 1284.57 272.936 1285.34 274.28C1286.14 275.624 1286.54 277.32 1286.54 279.368C1286.54 281.544 1286.11 283.304 1285.24 284.648C1284.38 285.96 1283.26 286.92 1281.88 287.528C1280.54 288.136 1279.12 288.44 1277.61 288.44ZM1277.8 284.312C1278.51 284.312 1279.18 284.152 1279.82 283.832C1280.49 283.512 1281.04 283.016 1281.45 282.344C1281.9 281.64 1282.12 280.696 1282.12 279.512C1282.12 278.232 1281.88 277.224 1281.4 276.488C1280.96 275.752 1280.38 275.224 1279.68 274.904C1278.97 274.552 1278.25 274.376 1277.52 274.376C1276.81 274.376 1276.12 274.552 1275.45 274.904C1274.78 275.224 1274.24 275.736 1273.82 276.44C1273.4 277.112 1273.2 278.04 1273.2 279.224C1273.2 280.408 1273.42 281.384 1273.87 282.152C1274.32 282.92 1274.89 283.48 1275.6 283.832C1276.33 284.152 1277.07 284.312 1277.8 284.312ZM1252.75 287L1271.9 255.32H1277.13L1257.93 287H1252.75Z" fill="white"/>
<path opacity="0.3" d="M1186.06 322V306.16H1188.27V322H1186.06ZM1186.78 322V320.08H1195.66V322H1186.78ZM1198.01 322V309.592H1200.2V322H1198.01ZM1199.12 307.432C1198.61 307.432 1198.22 307.328 1197.97 307.12C1197.71 306.912 1197.58 306.6 1197.58 306.184C1197.58 305.768 1197.71 305.456 1197.97 305.248C1198.22 305.04 1198.6 304.936 1199.09 304.936C1199.61 304.936 1199.99 305.04 1200.25 305.248C1200.5 305.456 1200.63 305.768 1200.63 306.184C1200.63 306.584 1200.5 306.896 1200.25 307.12C1199.99 307.328 1199.61 307.432 1199.12 307.432ZM1212.56 325.888V322.528C1212.56 322.112 1212.58 321.68 1212.63 321.232C1212.68 320.768 1212.73 320.304 1212.8 319.84C1212.86 319.376 1212.93 318.936 1212.99 318.52H1212.61C1212.43 319.16 1212.17 319.776 1211.81 320.368C1211.48 320.944 1211.03 321.416 1210.47 321.784C1209.91 322.136 1209.19 322.312 1208.31 322.312C1207.24 322.312 1206.33 322.032 1205.6 321.472C1204.86 320.896 1204.3 320.12 1203.92 319.144C1203.53 318.168 1203.34 317.064 1203.34 315.832C1203.34 314.584 1203.53 313.472 1203.89 312.496C1204.28 311.504 1204.85 310.72 1205.62 310.144C1206.39 309.568 1207.33 309.28 1208.45 309.28C1209.27 309.28 1209.95 309.432 1210.49 309.736C1211.04 310.04 1211.48 310.456 1211.81 310.984C1212.15 311.512 1212.4 312.112 1212.56 312.784H1212.94L1212.8 309.616H1214.77V315.76V325.888H1212.56ZM1208.91 320.416C1209.41 320.416 1209.85 320.312 1210.25 320.104C1210.65 319.896 1211 319.632 1211.29 319.312C1211.57 318.976 1211.81 318.608 1212.01 318.208C1212.2 317.808 1212.34 317.408 1212.44 317.008C1212.53 316.608 1212.58 316.248 1212.58 315.928V315.64C1212.58 315.128 1212.49 314.616 1212.32 314.104C1212.14 313.576 1211.89 313.096 1211.57 312.664C1211.27 312.216 1210.89 311.864 1210.42 311.608C1209.96 311.336 1209.44 311.2 1208.86 311.2C1208.19 311.2 1207.61 311.392 1207.11 311.776C1206.63 312.144 1206.26 312.672 1206.01 313.36C1205.75 314.032 1205.62 314.832 1205.62 315.76C1205.62 316.64 1205.74 317.432 1205.98 318.136C1206.24 318.84 1206.61 319.4 1207.09 319.816C1207.58 320.216 1208.19 320.416 1208.91 320.416ZM1222.55 322.312C1221.18 322.312 1220.14 321.832 1219.43 320.872C1218.73 319.912 1218.38 318.48 1218.38 316.576V309.592H1220.58V316.384C1220.58 317.728 1220.79 318.728 1221.21 319.384C1221.62 320.04 1222.28 320.368 1223.18 320.368C1223.67 320.368 1224.11 320.248 1224.5 320.008C1224.9 319.768 1225.25 319.424 1225.55 318.976C1225.86 318.528 1226.1 318 1226.3 317.392C1226.49 316.768 1226.62 316.096 1226.68 315.376V309.592H1228.86V316.816V322H1226.92L1227.11 318.016H1226.75C1226.54 319.008 1226.25 319.824 1225.86 320.464C1225.5 321.088 1225.03 321.552 1224.47 321.856C1223.91 322.16 1223.27 322.312 1222.55 322.312ZM1232.68 322V309.592H1234.86V322H1232.68ZM1233.78 307.432C1233.27 307.432 1232.89 307.328 1232.63 307.12C1232.37 306.912 1232.25 306.6 1232.25 306.184C1232.25 305.768 1232.37 305.456 1232.63 305.248C1232.89 305.04 1233.26 304.936 1233.76 304.936C1234.27 304.936 1234.65 305.04 1234.91 305.248C1235.17 305.456 1235.29 305.768 1235.29 306.184C1235.29 306.584 1235.17 306.896 1234.91 307.12C1234.65 307.328 1234.28 307.432 1233.78 307.432ZM1243.02 322.312C1241.97 322.312 1241.06 322.032 1240.31 321.472C1239.56 320.912 1238.98 320.144 1238.58 319.168C1238.2 318.192 1238.01 317.072 1238.01 315.808C1238.01 314.544 1238.2 313.424 1238.58 312.448C1238.97 311.472 1239.53 310.704 1240.26 310.144C1241 309.584 1241.9 309.304 1242.97 309.304C1243.85 309.304 1244.57 309.488 1245.13 309.856C1245.69 310.224 1246.14 310.704 1246.48 311.296C1246.83 311.872 1247.09 312.504 1247.25 313.192H1247.68C1247.6 312.728 1247.53 312.248 1247.46 311.752C1247.4 311.24 1247.34 310.744 1247.29 310.264C1247.25 309.768 1247.22 309.328 1247.22 308.944V305.2H1249.43V315.88V322H1247.46L1247.58 318.64H1247.2C1247.01 319.36 1246.73 320 1246.38 320.56C1246.03 321.104 1245.58 321.536 1245.04 321.856C1244.49 322.16 1243.82 322.312 1243.02 322.312ZM1243.53 320.392C1244.1 320.392 1244.62 320.256 1245.09 319.984C1245.55 319.712 1245.94 319.36 1246.26 318.928C1246.58 318.48 1246.82 318 1246.98 317.488C1247.16 316.976 1247.25 316.48 1247.25 316V315.712C1247.25 315.376 1247.2 315.016 1247.1 314.632C1247.01 314.232 1246.86 313.832 1246.67 313.432C1246.49 313.032 1246.25 312.664 1245.95 312.328C1245.66 311.976 1245.32 311.704 1244.92 311.512C1244.52 311.304 1244.07 311.2 1243.57 311.2C1242.85 311.2 1242.25 311.408 1241.75 311.824C1241.27 312.224 1240.9 312.776 1240.65 313.48C1240.41 314.184 1240.29 314.976 1240.29 315.856C1240.29 316.768 1240.41 317.568 1240.67 318.256C1240.93 318.928 1241.29 319.456 1241.77 319.84C1242.27 320.208 1242.85 320.392 1243.53 320.392ZM1253.26 322V309.592H1255.44V322H1253.26ZM1254.36 307.432C1253.85 307.432 1253.46 307.328 1253.21 307.12C1252.95 306.912 1252.82 306.6 1252.82 306.184C1252.82 305.768 1252.95 305.456 1253.21 305.248C1253.46 305.04 1253.84 304.936 1254.34 304.936C1254.85 304.936 1255.23 305.04 1255.49 305.248C1255.74 305.456 1255.87 305.768 1255.87 306.184C1255.87 306.584 1255.74 306.896 1255.49 307.12C1255.23 307.328 1254.86 307.432 1254.36 307.432ZM1263.1 322.24C1261.94 322.24 1261.09 321.928 1260.53 321.304C1259.97 320.68 1259.69 319.728 1259.69 318.448V311.416H1257.82L1257.84 309.592H1259.02C1259.42 309.592 1259.7 309.52 1259.88 309.376C1260.07 309.232 1260.18 308.992 1260.22 308.656L1260.46 306.784H1261.8V309.592H1265.38V311.44H1261.8V318.4C1261.8 319.04 1261.94 319.504 1262.23 319.792C1262.54 320.064 1262.97 320.2 1263.53 320.2C1263.83 320.2 1264.14 320.16 1264.46 320.08C1264.8 320 1265.13 319.84 1265.45 319.6V321.784C1264.98 321.96 1264.55 322.08 1264.15 322.144C1263.77 322.208 1263.42 322.24 1263.1 322.24ZM1272.58 326.176C1271.92 326.176 1271.27 326.096 1270.63 325.936C1270.01 325.792 1269.43 325.568 1268.91 325.264C1268.38 324.96 1267.95 324.568 1267.61 324.088L1268.71 322.504C1269.08 323.048 1269.6 323.464 1270.27 323.752C1270.95 324.04 1271.68 324.184 1272.48 324.184C1273.38 324.184 1274.12 323.984 1274.71 323.584C1275.32 323.2 1275.78 322.6 1276.08 321.784C1276.39 320.952 1276.55 319.92 1276.56 318.688L1276.83 316.192H1276.37C1276.19 317.36 1275.91 318.296 1275.53 319C1275.16 319.688 1274.7 320.184 1274.14 320.488C1273.59 320.792 1272.96 320.944 1272.24 320.944C1271.35 320.944 1270.59 320.72 1269.96 320.272C1269.35 319.808 1268.89 319.136 1268.57 318.256C1268.25 317.36 1268.09 316.272 1268.09 314.992V309.592H1270.27V314.512C1270.27 316.064 1270.49 317.208 1270.92 317.944C1271.37 318.664 1272.03 319.024 1272.91 319.024C1273.39 319.024 1273.83 318.904 1274.21 318.664C1274.59 318.424 1274.92 318.072 1275.19 317.608C1275.48 317.144 1275.71 316.56 1275.87 315.856C1276.04 315.136 1276.15 314.304 1276.2 313.36V309.592H1278.39V318.808C1278.39 319.784 1278.31 320.664 1278.17 321.448C1278.03 322.232 1277.79 322.912 1277.47 323.488C1277.17 324.08 1276.79 324.576 1276.32 324.976C1275.86 325.376 1275.31 325.672 1274.69 325.864C1274.07 326.072 1273.36 326.176 1272.58 326.176Z" fill="white"/>
<path d="M142.428 568V562.192L154.044 553.792C154.684 553.28 155.34 552.736 156.012 552.16C156.716 551.552 157.356 550.88 157.932 550.144C158.54 549.408 159.02 548.624 159.372 547.792C159.756 546.96 159.948 546.048 159.948 545.056C159.948 544.064 159.724 543.2 159.276 542.464C158.828 541.728 158.156 541.152 157.26 540.736C156.396 540.32 155.308 540.112 153.996 540.112C153.004 540.112 152.108 540.272 151.308 540.592C150.508 540.88 149.836 541.344 149.292 541.984C148.748 542.592 148.348 543.392 148.092 544.384C147.836 545.376 147.708 546.576 147.708 547.984L142.668 547.024C142.604 544.688 143.004 542.672 143.868 540.976C144.732 539.28 146.012 537.968 147.708 537.04C149.436 536.08 151.564 535.6 154.092 535.6C156.3 535.6 158.236 535.968 159.9 536.704C161.564 537.408 162.844 538.432 163.74 539.776C164.668 541.12 165.132 542.752 165.132 544.672C165.132 546.208 164.876 547.616 164.364 548.896C163.852 550.176 163.18 551.328 162.348 552.352C161.548 553.376 160.668 554.288 159.708 555.088C158.748 555.888 157.804 556.592 156.876 557.2L148.332 563.392V563.776L165.852 563.584V568H142.428ZM168.982 561.328V555.76C170.518 554.128 171.926 552.496 173.206 550.864C174.518 549.2 175.702 547.552 176.758 545.92C177.846 544.288 178.79 542.672 179.59 541.072C180.422 539.44 181.11 537.84 181.654 536.272H190.774V568H185.59V540.064H185.158C184.198 542.304 183.126 544.416 181.942 546.4C180.79 548.352 179.542 550.16 178.198 551.824C176.886 553.488 175.542 555.056 174.166 556.528V557.008H194.902V561.328H168.982ZM205.755 553.168C204.123 553.168 202.635 552.832 201.291 552.16C199.947 551.488 198.875 550.48 198.075 549.136C197.307 547.792 196.923 546.128 196.923 544.144C196.923 542.512 197.163 541.12 197.643 539.968C198.155 538.784 198.827 537.84 199.659 537.136C200.523 536.4 201.483 535.872 202.539 535.552C203.627 535.2 204.731 535.024 205.851 535.024C207.547 535.024 209.051 535.36 210.363 536.032C211.707 536.704 212.763 537.712 213.531 539.056C214.331 540.4 214.731 542.08 214.731 544.096C214.731 546.272 214.283 548.032 213.387 549.376C212.523 550.72 211.403 551.696 210.027 552.304C208.683 552.88 207.259 553.168 205.755 553.168ZM205.947 549.088C206.651 549.088 207.339 548.928 208.011 548.608C208.683 548.288 209.227 547.776 209.643 547.072C210.091 546.368 210.315 545.424 210.315 544.24C210.315 542.96 210.075 541.952 209.595 541.216C209.115 540.48 208.523 539.952 207.819 539.632C207.147 539.312 206.443 539.152 205.707 539.152C204.971 539.152 204.267 539.312 203.595 539.632C202.955 539.952 202.427 540.464 202.011 541.168C201.595 541.872 201.387 542.8 201.387 543.952C201.387 545.168 201.611 546.16 202.059 546.928C202.507 547.664 203.083 548.208 203.787 548.56C204.491 548.912 205.211 549.088 205.947 549.088ZM230.619 569.44C228.955 569.44 227.451 569.104 226.107 568.432C224.763 567.76 223.707 566.752 222.939 565.408C222.171 564.032 221.787 562.352 221.787 560.368C221.787 558.736 222.027 557.344 222.507 556.192C223.019 555.04 223.691 554.112 224.523 553.408C225.387 552.672 226.347 552.128 227.403 551.776C228.491 551.424 229.595 551.248 230.715 551.248C232.379 551.248 233.867 551.584 235.179 552.256C236.523 552.928 237.579 553.936 238.347 555.28C239.147 556.624 239.547 558.32 239.547 560.368C239.547 562.544 239.115 564.304 238.251 565.648C237.387 566.96 236.267 567.92 234.891 568.528C233.547 569.136 232.123 569.44 230.619 569.44ZM230.811 565.312C231.515 565.312 232.187 565.152 232.827 564.832C233.499 564.512 234.043 564.016 234.459 563.344C234.907 562.64 235.131 561.696 235.131 560.512C235.131 559.232 234.891 558.224 234.411 557.488C233.963 556.752 233.387 556.224 232.683 555.904C231.979 555.552 231.259 555.376 230.523 555.376C229.819 555.376 229.131 555.552 228.459 555.904C227.787 556.224 227.243 556.736 226.827 557.44C226.411 558.112 226.203 559.04 226.203 560.224C226.203 561.408 226.427 562.384 226.875 563.152C227.323 563.92 227.899 564.48 228.603 564.832C229.339 565.152 230.075 565.312 230.811 565.312ZM205.755 568L224.907 536.32H230.139L210.939 568H205.755Z" fill="white"/>
<path opacity="0.3" d="M0.72 603L6.288 587.16H9.504L15.072 603H12.696L8.04 589.008H7.752L3.096 603H0.72ZM3.36 599.448V597.768H12.696V599.448H3.36ZM17.8374 603V587.16H20.0694V603H17.8374ZM28.9153 603L34.4833 587.16H37.6993L43.2673 603H40.8913L36.2353 589.008H35.9473L31.2913 603H28.9153ZM31.5553 599.448V597.768H40.8913V599.448H31.5553ZM50.5436 607.2C49.2316 607.2 48.1516 607.096 47.3036 606.888C46.4716 606.696 45.8556 606.392 45.4556 605.976C45.0556 605.576 44.8556 605.072 44.8556 604.464C44.8556 603.728 45.1436 603.12 45.7196 602.64C46.2956 602.16 47.1676 601.84 48.3356 601.68V601.248C47.4876 601.248 46.8476 601.144 46.4156 600.936C45.9836 600.728 45.7676 600.416 45.7676 600C45.7676 599.568 45.9836 599.208 46.4156 598.92C46.8476 598.616 47.5516 598.336 48.5276 598.08V597.624C47.5516 597.608 46.8076 597.32 46.2956 596.76C45.7836 596.184 45.5276 595.44 45.5276 594.528C45.5276 593.712 45.7436 593.008 46.1756 592.416C46.6236 591.808 47.2636 591.344 48.0956 591.024C48.9436 590.688 49.9516 590.52 51.1196 590.52H56.9756V592.368L53.1356 591.768V592.224C54.0636 592.416 54.7756 592.744 55.2716 593.208C55.7676 593.656 56.0156 594.264 56.0156 595.032C56.0156 595.72 55.8156 596.32 55.4156 596.832C55.0156 597.344 54.4236 597.744 53.6396 598.032C52.8716 598.304 51.9196 598.44 50.7836 598.44C50.5596 598.44 50.3196 598.432 50.0636 598.416C49.8236 598.384 49.5036 598.336 49.1036 598.272C48.6716 598.544 48.3196 598.792 48.0476 599.016C47.7916 599.24 47.6636 599.44 47.6636 599.616C47.6636 599.792 47.7836 599.936 48.0236 600.048C48.2796 600.144 48.5836 600.208 48.9356 600.24C49.2876 600.272 49.6156 600.288 49.9196 600.288H52.7276C53.0476 600.288 53.4476 600.32 53.9276 600.384C54.4236 600.448 54.9116 600.584 55.3916 600.792C55.8876 601 56.3036 601.32 56.6396 601.752C56.9756 602.184 57.1436 602.784 57.1436 603.552C57.1436 604.416 56.8876 605.12 56.3756 605.664C55.8636 606.208 55.1196 606.6 54.1436 606.84C53.1676 607.08 51.9676 607.2 50.5436 607.2ZM50.5916 605.4C51.6636 605.4 52.5276 605.328 53.1836 605.184C53.8556 605.056 54.3436 604.848 54.6476 604.56C54.9676 604.272 55.1276 603.904 55.1276 603.456C55.1276 603.04 55.0156 602.72 54.7916 602.496C54.5836 602.256 54.3196 602.088 53.9996 601.992C53.6796 601.896 53.3596 601.84 53.0396 601.824C52.7196 601.792 52.4476 601.776 52.2236 601.776H49.4156C48.4876 601.984 47.8476 602.272 47.4956 602.64C47.1436 603.008 46.9676 603.4 46.9676 603.816C46.9676 604.264 47.1276 604.6 47.4476 604.824C47.7676 605.048 48.1996 605.2 48.7436 605.28C49.3036 605.36 49.9196 605.4 50.5916 605.4ZM50.8796 597.024C51.8876 597.024 52.6476 596.816 53.1596 596.4C53.6716 595.984 53.9276 595.424 53.9276 594.72C53.9276 593.968 53.6636 593.352 53.1356 592.872C52.6236 592.376 51.8476 592.128 50.8076 592.128C49.7996 592.128 49.0236 592.36 48.4796 592.824C47.9516 593.288 47.6876 593.888 47.6876 594.624C47.6876 595.104 47.8076 595.528 48.0476 595.896C48.3036 596.248 48.6636 596.528 49.1276 596.736C49.6076 596.928 50.1916 597.024 50.8796 597.024ZM65.0209 603.312C64.0449 603.312 63.1809 603.168 62.4289 602.88C61.6929 602.576 61.0689 602.144 60.5569 601.584C60.0449 601.024 59.6609 600.36 59.4049 599.592C59.1489 598.824 59.0209 597.96 59.0209 597C59.0209 596.024 59.1489 595.128 59.4049 594.312C59.6609 593.496 60.0369 592.784 60.5329 592.176C61.0289 591.568 61.6369 591.104 62.3569 590.784C63.0769 590.448 63.9009 590.28 64.8289 590.28C65.6449 590.28 66.3889 590.416 67.0609 590.688C67.7329 590.96 68.3009 591.384 68.7649 591.96C69.2449 592.52 69.6049 593.232 69.8449 594.096C70.0849 594.944 70.1809 595.944 70.1329 597.096L60.3889 597.168V595.68L68.8129 595.608L68.0689 596.616C68.1489 595.608 68.0529 594.776 67.7809 594.12C67.5089 593.464 67.1169 592.968 66.6049 592.632C66.1089 592.296 65.5169 592.128 64.8289 592.128C64.0929 592.128 63.4449 592.32 62.8849 592.704C62.3249 593.088 61.8929 593.64 61.5889 594.36C61.3009 595.08 61.1569 595.952 61.1569 596.976C61.1569 598.448 61.4849 599.576 62.1409 600.36C62.7969 601.128 63.7729 601.512 65.0689 601.512C65.5649 601.512 65.9969 601.456 66.3649 601.344C66.7489 601.216 67.0689 601.048 67.3249 600.84C67.5969 600.616 67.8129 600.36 67.9729 600.072C68.1489 599.784 68.2849 599.472 68.3809 599.136L70.3009 599.592C70.1569 600.168 69.9329 600.688 69.6289 601.152C69.3409 601.6 68.9729 601.984 68.5249 602.304C68.0929 602.624 67.5889 602.872 67.0129 603.048C66.4369 603.224 65.7729 603.312 65.0209 603.312ZM73.2398 603V595.296V590.592H75.2078L74.9918 594.528H75.3998C75.6238 593.552 75.9198 592.752 76.2878 592.128C76.6718 591.504 77.1518 591.04 77.7278 590.736C78.3038 590.432 78.9758 590.28 79.7438 590.28C81.1198 590.28 82.1598 590.776 82.8638 591.768C83.5838 592.744 83.9438 594.208 83.9438 596.16V603H81.7358V596.352C81.7358 594.944 81.5118 593.904 81.0638 593.232C80.6318 592.56 79.9918 592.224 79.1438 592.224C78.3758 592.224 77.7198 592.464 77.1758 592.944C76.6478 593.424 76.2318 594.056 75.9278 594.84C75.6238 595.624 75.4558 596.472 75.4238 597.384V603H73.2398ZM91.3772 603.24C90.2252 603.24 89.3692 602.928 88.8092 602.304C88.2492 601.68 87.9692 600.728 87.9692 599.448V592.416H86.0972L86.1212 590.592H87.2972C87.6972 590.592 87.9852 590.52 88.1612 590.376C88.3532 590.232 88.4652 589.992 88.4972 589.656L88.7372 587.784H90.0812V590.592H93.6572V592.44H90.0812V599.4C90.0812 600.04 90.2252 600.504 90.5132 600.792C90.8172 601.064 91.2492 601.2 91.8092 601.2C92.1132 601.2 92.4252 601.16 92.7452 601.08C93.0812 601 93.4092 600.84 93.7292 600.6V602.784C93.2652 602.96 92.8332 603.08 92.4332 603.144C92.0492 603.208 91.6972 603.24 91.3772 603.24ZM101.027 603.312C100.163 603.312 99.3954 603.216 98.7234 603.024C98.0514 602.848 97.4914 602.592 97.0434 602.256C96.5954 601.904 96.2514 601.488 96.0114 601.008C95.7714 600.528 95.6434 600 95.6274 599.424L97.4754 598.944C97.4434 599.472 97.5714 599.936 97.8594 600.336C98.1634 600.72 98.5874 601.016 99.1314 601.224C99.6914 601.432 100.363 601.536 101.147 601.536C102.091 601.536 102.819 601.376 103.331 601.056C103.859 600.736 104.123 600.296 104.123 599.736C104.123 599.288 103.979 598.944 103.691 598.704C103.403 598.448 103.003 598.248 102.491 598.104C101.995 597.944 101.403 597.8 100.715 597.672C100.139 597.544 99.5634 597.4 98.9874 597.24C98.4114 597.08 97.8834 596.872 97.4034 596.616C96.9394 596.344 96.5634 595.992 96.2754 595.56C95.9874 595.128 95.8434 594.592 95.8434 593.952C95.8434 593.2 96.0434 592.552 96.4434 592.008C96.8434 591.464 97.4114 591.04 98.1474 590.736C98.8834 590.432 99.7634 590.28 100.787 590.28C101.811 590.28 102.683 590.44 103.403 590.76C104.123 591.064 104.691 591.496 105.107 592.056C105.523 592.616 105.755 593.272 105.803 594.024L103.907 594.504C103.891 593.976 103.747 593.528 103.475 593.16C103.219 592.792 102.851 592.52 102.371 592.344C101.891 592.152 101.331 592.056 100.691 592.056C99.8434 592.056 99.1714 592.216 98.6754 592.536C98.1794 592.856 97.9314 593.296 97.9314 593.856C97.9314 594.272 98.0754 594.608 98.3634 594.864C98.6674 595.12 99.0754 595.32 99.5874 595.464C100.099 595.608 100.667 595.752 101.291 595.896C101.931 596.024 102.539 596.168 103.115 596.328C103.707 596.488 104.235 596.696 104.699 596.952C105.163 597.208 105.531 597.552 105.803 597.984C106.075 598.4 106.211 598.936 106.211 599.592C106.211 600.408 105.995 601.096 105.563 601.656C105.131 602.2 104.523 602.616 103.739 602.904C102.971 603.176 102.067 603.312 101.027 603.312ZM107.908 591.912L107.596 586.2H109.684L109.372 591.912H107.908ZM123.732 603.312C122.756 603.312 121.892 603.168 121.14 602.88C120.404 602.576 119.78 602.144 119.268 601.584C118.756 601.024 118.372 600.36 118.116 599.592C117.86 598.824 117.732 597.96 117.732 597C117.732 596.024 117.86 595.128 118.116 594.312C118.372 593.496 118.748 592.784 119.244 592.176C119.74 591.568 120.348 591.104 121.068 590.784C121.788 590.448 122.612 590.28 123.54 590.28C124.356 590.28 125.1 590.416 125.772 590.688C126.444 590.96 127.012 591.384 127.476 591.96C127.956 592.52 128.316 593.232 128.556 594.096C128.796 594.944 128.892 595.944 128.844 597.096L119.1 597.168V595.68L127.524 595.608L126.78 596.616C126.86 595.608 126.764 594.776 126.492 594.12C126.22 593.464 125.828 592.968 125.316 592.632C124.82 592.296 124.228 592.128 123.54 592.128C122.804 592.128 122.156 592.32 121.596 592.704C121.036 593.088 120.604 593.64 120.3 594.36C120.012 595.08 119.868 595.952 119.868 596.976C119.868 598.448 120.196 599.576 120.852 600.36C121.508 601.128 122.484 601.512 123.78 601.512C124.276 601.512 124.708 601.456 125.076 601.344C125.46 601.216 125.78 601.048 126.036 600.84C126.308 600.616 126.524 600.36 126.684 600.072C126.86 599.784 126.996 599.472 127.092 599.136L129.012 599.592C128.868 600.168 128.644 600.688 128.34 601.152C128.052 601.6 127.684 601.984 127.236 602.304C126.804 602.624 126.3 602.872 125.724 603.048C125.148 603.224 124.484 603.312 123.732 603.312ZM137.326 603.312C136.238 603.312 135.31 603.136 134.542 602.784C133.79 602.432 133.174 601.96 132.694 601.368C132.23 600.776 131.886 600.096 131.662 599.328C131.454 598.56 131.35 597.76 131.35 596.928C131.35 596.016 131.47 595.16 131.71 594.36C131.95 593.56 132.31 592.856 132.79 592.248C133.286 591.624 133.894 591.144 134.614 590.808C135.35 590.456 136.206 590.28 137.182 590.28C138.126 590.28 138.958 590.448 139.678 590.784C140.398 591.104 140.982 591.56 141.43 592.152C141.894 592.744 142.19 593.448 142.318 594.264L140.23 594.84C140.198 594.392 140.062 593.96 139.822 593.544C139.598 593.128 139.262 592.792 138.814 592.536C138.366 592.264 137.814 592.128 137.158 592.128C136.534 592.128 135.998 592.248 135.55 592.488C135.118 592.728 134.75 593.064 134.446 593.496C134.158 593.928 133.934 594.432 133.774 595.008C133.63 595.584 133.558 596.208 133.558 596.88C133.558 597.808 133.686 598.616 133.942 599.304C134.214 599.992 134.63 600.528 135.19 600.912C135.75 601.296 136.47 601.488 137.35 601.488C138.006 601.488 138.566 601.376 139.03 601.152C139.494 600.912 139.862 600.584 140.134 600.168C140.406 599.736 140.582 599.232 140.662 598.656L142.678 599.112C142.566 599.8 142.358 600.408 142.054 600.936C141.75 601.464 141.366 601.904 140.902 602.256C140.438 602.592 139.902 602.848 139.294 603.024C138.702 603.216 138.046 603.312 137.326 603.312ZM150.497 603.312C149.313 603.312 148.265 603.056 147.353 602.544C146.457 602.016 145.753 601.264 145.241 600.288C144.745 599.312 144.497 598.128 144.497 596.736C144.497 595.296 144.761 594.104 145.289 593.16C145.833 592.2 146.553 591.48 147.449 591C148.345 590.52 149.345 590.28 150.449 590.28C151.601 590.28 152.625 590.536 153.521 591.048C154.433 591.544 155.153 592.28 155.681 593.256C156.209 594.216 156.473 595.408 156.473 596.832C156.473 598.256 156.209 599.448 155.681 600.408C155.169 601.368 154.457 602.096 153.545 602.592C152.649 603.072 151.633 603.312 150.497 603.312ZM150.593 601.512C151.361 601.512 152.017 601.328 152.561 600.96C153.121 600.576 153.545 600.04 153.833 599.352C154.137 598.664 154.289 597.848 154.289 596.904C154.289 595.928 154.129 595.088 153.809 594.384C153.505 593.664 153.065 593.112 152.489 592.728C151.913 592.328 151.217 592.128 150.401 592.128C149.665 592.128 149.017 592.304 148.457 592.656C147.897 593.008 147.465 593.528 147.161 594.216C146.857 594.888 146.705 595.712 146.705 596.688C146.705 598.192 147.049 599.376 147.737 600.24C148.441 601.088 149.393 601.512 150.593 601.512ZM164.238 603.312C163.374 603.312 162.606 603.216 161.934 603.024C161.262 602.848 160.702 602.592 160.254 602.256C159.806 601.904 159.462 601.488 159.222 601.008C158.982 600.528 158.854 600 158.838 599.424L160.686 598.944C160.654 599.472 160.782 599.936 161.07 600.336C161.374 600.72 161.798 601.016 162.342 601.224C162.902 601.432 163.574 601.536 164.358 601.536C165.302 601.536 166.03 601.376 166.542 601.056C167.07 600.736 167.334 600.296 167.334 599.736C167.334 599.288 167.19 598.944 166.902 598.704C166.614 598.448 166.214 598.248 165.702 598.104C165.206 597.944 164.614 597.8 163.926 597.672C163.35 597.544 162.774 597.4 162.198 597.24C161.622 597.08 161.094 596.872 160.614 596.616C160.15 596.344 159.774 595.992 159.486 595.56C159.198 595.128 159.054 594.592 159.054 593.952C159.054 593.2 159.254 592.552 159.654 592.008C160.054 591.464 160.622 591.04 161.358 590.736C162.094 590.432 162.974 590.28 163.998 590.28C165.022 590.28 165.894 590.44 166.614 590.76C167.334 591.064 167.902 591.496 168.318 592.056C168.734 592.616 168.966 593.272 169.014 594.024L167.118 594.504C167.102 593.976 166.958 593.528 166.686 593.16C166.43 592.792 166.062 592.52 165.582 592.344C165.102 592.152 164.542 592.056 163.902 592.056C163.054 592.056 162.382 592.216 161.886 592.536C161.39 592.856 161.142 593.296 161.142 593.856C161.142 594.272 161.286 594.608 161.574 594.864C161.878 595.12 162.286 595.32 162.798 595.464C163.31 595.608 163.878 595.752 164.502 595.896C165.142 596.024 165.75 596.168 166.326 596.328C166.918 596.488 167.446 596.696 167.91 596.952C168.374 597.208 168.742 597.552 169.014 597.984C169.286 598.4 169.422 598.936 169.422 599.592C169.422 600.408 169.206 601.096 168.774 601.656C168.342 602.2 167.734 602.616 166.95 602.904C166.182 603.176 165.278 603.312 164.238 603.312ZM176.633 607.176C175.977 607.176 175.329 607.096 174.689 606.936C174.065 606.792 173.489 606.568 172.961 606.264C172.433 605.96 172.001 605.568 171.665 605.088L172.769 603.504C173.137 604.048 173.657 604.464 174.329 604.752C175.001 605.04 175.737 605.184 176.537 605.184C177.433 605.184 178.177 604.984 178.769 604.584C179.377 604.2 179.833 603.6 180.137 602.784C180.441 601.952 180.601 600.92 180.617 599.688L180.881 597.192H180.425C180.249 598.36 179.969 599.296 179.585 600C179.217 600.688 178.753 601.184 178.193 601.488C177.649 601.792 177.017 601.944 176.297 601.944C175.401 601.944 174.641 601.72 174.017 601.272C173.409 600.808 172.945 600.136 172.625 599.256C172.305 598.36 172.145 597.272 172.145 595.992V590.592H174.329V595.512C174.329 597.064 174.545 598.208 174.977 598.944C175.425 599.664 176.089 600.024 176.969 600.024C177.449 600.024 177.881 599.904 178.265 599.664C178.649 599.424 178.977 599.072 179.249 598.608C179.537 598.144 179.761 597.56 179.921 596.856C180.097 596.136 180.209 595.304 180.257 594.36V590.592H182.441V599.808C182.441 600.784 182.369 601.664 182.225 602.448C182.081 603.232 181.849 603.912 181.529 604.488C181.225 605.08 180.841 605.576 180.377 605.976C179.913 606.376 179.369 606.672 178.745 606.864C178.121 607.072 177.417 607.176 176.633 607.176ZM190.84 603.312C189.976 603.312 189.208 603.216 188.536 603.024C187.864 602.848 187.304 602.592 186.856 602.256C186.408 601.904 186.064 601.488 185.824 601.008C185.584 600.528 185.456 600 185.44 599.424L187.288 598.944C187.256 599.472 187.384 599.936 187.672 600.336C187.976 600.72 188.4 601.016 188.944 601.224C189.504 601.432 190.176 601.536 190.96 601.536C191.904 601.536 192.632 601.376 193.144 601.056C193.672 600.736 193.936 600.296 193.936 599.736C193.936 599.288 193.792 598.944 193.504 598.704C193.216 598.448 192.816 598.248 192.304 598.104C191.808 597.944 191.216 597.8 190.528 597.672C189.952 597.544 189.376 597.4 188.8 597.24C188.224 597.08 187.696 596.872 187.216 596.616C186.752 596.344 186.376 595.992 186.088 595.56C185.8 595.128 185.656 594.592 185.656 593.952C185.656 593.2 185.856 592.552 186.256 592.008C186.656 591.464 187.224 591.04 187.96 590.736C188.696 590.432 189.576 590.28 190.6 590.28C191.624 590.28 192.496 590.44 193.216 590.76C193.936 591.064 194.504 591.496 194.92 592.056C195.336 592.616 195.568 593.272 195.616 594.024L193.72 594.504C193.704 593.976 193.56 593.528 193.288 593.16C193.032 592.792 192.664 592.52 192.184 592.344C191.704 592.152 191.144 592.056 190.504 592.056C189.656 592.056 188.984 592.216 188.488 592.536C187.992 592.856 187.744 593.296 187.744 593.856C187.744 594.272 187.888 594.608 188.176 594.864C188.48 595.12 188.888 595.32 189.4 595.464C189.912 595.608 190.48 595.752 191.104 595.896C191.744 596.024 192.352 596.168 192.928 596.328C193.52 596.488 194.048 596.696 194.512 596.952C194.976 597.208 195.344 597.552 195.616 597.984C195.888 598.4 196.024 598.936 196.024 599.592C196.024 600.408 195.808 601.096 195.376 601.656C194.944 602.2 194.336 602.616 193.552 602.904C192.784 603.176 191.88 603.312 190.84 603.312ZM202.823 603.24C201.671 603.24 200.815 602.928 200.255 602.304C199.695 601.68 199.415 600.728 199.415 599.448V592.416H197.543L197.567 590.592H198.743C199.143 590.592 199.431 590.52 199.607 590.376C199.799 590.232 199.911 589.992 199.943 589.656L200.183 587.784H201.527V590.592H205.103V592.44H201.527V599.4C201.527 600.04 201.671 600.504 201.959 600.792C202.263 601.064 202.695 601.2 203.255 601.2C203.559 601.2 203.871 601.16 204.191 601.08C204.527 601 204.855 600.84 205.175 600.6V602.784C204.711 602.96 204.279 603.08 203.879 603.144C203.495 603.208 203.143 603.24 202.823 603.24ZM213.052 603.312C212.076 603.312 211.212 603.168 210.46 602.88C209.724 602.576 209.1 602.144 208.588 601.584C208.076 601.024 207.692 600.36 207.436 599.592C207.18 598.824 207.052 597.96 207.052 597C207.052 596.024 207.18 595.128 207.436 594.312C207.692 593.496 208.068 592.784 208.564 592.176C209.06 591.568 209.668 591.104 210.388 590.784C211.108 590.448 211.932 590.28 212.86 590.28C213.676 590.28 214.42 590.416 215.092 590.688C215.764 590.96 216.332 591.384 216.796 591.96C217.276 592.52 217.636 593.232 217.876 594.096C218.116 594.944 218.212 595.944 218.164 597.096L208.42 597.168V595.68L216.844 595.608L216.1 596.616C216.18 595.608 216.084 594.776 215.812 594.12C215.54 593.464 215.148 592.968 214.636 592.632C214.14 592.296 213.548 592.128 212.86 592.128C212.124 592.128 211.476 592.32 210.916 592.704C210.356 593.088 209.924 593.64 209.62 594.36C209.332 595.08 209.188 595.952 209.188 596.976C209.188 598.448 209.516 599.576 210.172 600.36C210.828 601.128 211.804 601.512 213.1 601.512C213.596 601.512 214.028 601.456 214.396 601.344C214.78 601.216 215.1 601.048 215.356 600.84C215.628 600.616 215.844 600.36 216.004 600.072C216.18 599.784 216.316 599.472 216.412 599.136L218.332 599.592C218.188 600.168 217.964 600.688 217.66 601.152C217.372 601.6 217.004 601.984 216.556 602.304C216.124 602.624 215.62 602.872 215.044 603.048C214.468 603.224 213.804 603.312 213.052 603.312ZM221.271 603V595.32V590.592H223.215L222.999 594.528H223.407C223.615 593.584 223.895 592.8 224.247 592.176C224.599 591.536 225.031 591.064 225.543 590.76C226.071 590.44 226.671 590.28 227.343 590.28C228.143 590.28 228.799 590.48 229.311 590.88C229.823 591.264 230.199 591.768 230.439 592.392C230.695 593.016 230.823 593.704 230.823 594.456H231.207C231.383 593.56 231.655 592.8 232.023 592.176C232.391 591.552 232.847 591.08 233.391 590.76C233.935 590.44 234.559 590.28 235.263 590.28C235.903 590.28 236.463 590.408 236.943 590.664C237.423 590.92 237.831 591.304 238.167 591.816C238.503 592.312 238.751 592.928 238.911 593.664C239.071 594.4 239.151 595.248 239.151 596.208V603H236.967V596.496C236.967 595.552 236.879 594.768 236.703 594.144C236.527 593.504 236.263 593.032 235.911 592.728C235.575 592.408 235.143 592.248 234.615 592.248C234.023 592.248 233.487 592.456 233.007 592.872C232.543 593.272 232.159 593.84 231.855 594.576C231.567 595.296 231.375 596.12 231.279 597.048V603H229.143V596.712C229.143 595.72 229.055 594.896 228.879 594.24C228.703 593.584 228.439 593.088 228.087 592.752C227.751 592.416 227.311 592.248 226.767 592.248C226.127 592.248 225.575 592.472 225.111 592.92C224.647 593.352 224.271 593.936 223.983 594.672C223.711 595.408 223.535 596.232 223.455 597.144V603H221.271Z" fill="white"/>
<path d="M358.202 45.72C353.786 45.72 350.378 44.344 347.978 41.592C345.578 38.84 344.378 34.808 344.378 29.496C344.378 25.976 344.89 22.968 345.914 20.472C346.97 17.944 348.506 16.008 350.522 14.664C352.538 13.288 355.002 12.6 357.914 12.6C359.386 12.6 360.746 12.792 361.994 13.176C363.274 13.56 364.394 14.136 365.354 14.904C366.314 15.64 367.098 16.584 367.706 17.736C368.346 18.856 368.762 20.168 368.954 21.672L364.01 22.92C363.85 21.544 363.466 20.424 362.858 19.56C362.25 18.696 361.498 18.072 360.602 17.688C359.706 17.304 358.73 17.112 357.674 17.112C356.234 17.112 354.986 17.448 353.93 18.12C352.874 18.792 352.026 19.72 351.386 20.904C350.746 22.088 350.266 23.432 349.946 24.936C349.626 26.44 349.466 28.024 349.466 29.688C349.466 30.648 349.53 31.672 349.658 32.76C349.818 33.848 350.01 34.872 350.234 35.832H350.714C350.618 33.944 350.826 32.344 351.338 31.032C351.85 29.72 352.57 28.664 353.498 27.864C354.426 27.032 355.466 26.424 356.618 26.04C357.77 25.656 358.938 25.464 360.122 25.464C361.882 25.464 363.498 25.832 364.97 26.568C366.442 27.304 367.626 28.392 368.522 29.832C369.45 31.272 369.914 33.064 369.914 35.208C369.914 36.552 369.69 37.848 369.242 39.096C368.826 40.344 368.154 41.48 367.226 42.504C366.298 43.496 365.082 44.28 363.578 44.856C362.106 45.432 360.314 45.72 358.202 45.72ZM357.866 41.352C359.082 41.352 360.106 41.192 360.938 40.872C361.802 40.52 362.506 40.056 363.05 39.48C363.594 38.904 363.994 38.264 364.25 37.56C364.506 36.824 364.634 36.056 364.634 35.256C364.634 33.944 364.346 32.856 363.77 31.992C363.194 31.096 362.442 30.44 361.514 30.024C360.618 29.608 359.642 29.4 358.586 29.4C357.274 29.4 356.122 29.672 355.13 30.216C354.138 30.76 353.354 31.544 352.778 32.568C352.234 33.56 351.962 34.728 351.962 36.072C351.962 37.128 352.138 37.992 352.49 38.664C352.842 39.336 353.306 39.88 353.882 40.296C354.458 40.68 355.082 40.952 355.754 41.112C356.458 41.272 357.162 41.352 357.866 41.352ZM382.755 30.168C381.123 30.168 379.635 29.832 378.291 29.16C376.947 28.488 375.875 27.48 375.075 26.136C374.307 24.792 373.923 23.128 373.923 21.144C373.923 19.512 374.163 18.12 374.643 16.968C375.155 15.784 375.827 14.84 376.659 14.136C377.523 13.4 378.483 12.872 379.539 12.552C380.627 12.2 381.731 12.024 382.851 12.024C384.547 12.024 386.051 12.36 387.363 13.032C388.707 13.704 389.763 14.712 390.531 16.056C391.331 17.4 391.731 19.08 391.731 21.096C391.731 23.272 391.283 25.032 390.387 26.376C389.523 27.72 388.403 28.696 387.027 29.304C385.683 29.88 384.259 30.168 382.755 30.168ZM382.947 26.088C383.651 26.088 384.339 25.928 385.011 25.608C385.683 25.288 386.227 24.776 386.643 24.072C387.091 23.368 387.315 22.424 387.315 21.24C387.315 19.96 387.075 18.952 386.595 18.216C386.115 17.48 385.523 16.952 384.819 16.632C384.147 16.312 383.443 16.152 382.707 16.152C381.971 16.152 381.267 16.312 380.595 16.632C379.955 16.952 379.427 17.464 379.011 18.168C378.595 18.872 378.387 19.8 378.387 20.952C378.387 22.168 378.611 23.16 379.059 23.928C379.507 24.664 380.083 25.208 380.787 25.56C381.491 25.912 382.211 26.088 382.947 26.088ZM407.619 46.44C405.955 46.44 404.451 46.104 403.107 45.432C401.763 44.76 400.707 43.752 399.939 42.408C399.171 41.032 398.787 39.352 398.787 37.368C398.787 35.736 399.027 34.344 399.507 33.192C400.019 32.04 400.691 31.112 401.523 30.408C402.387 29.672 403.347 29.128 404.403 28.776C405.491 28.424 406.595 28.248 407.715 28.248C409.379 28.248 410.867 28.584 412.179 29.256C413.523 29.928 414.579 30.936 415.347 32.28C416.147 33.624 416.547 35.32 416.547 37.368C416.547 39.544 416.115 41.304 415.251 42.648C414.387 43.96 413.267 44.92 411.891 45.528C410.547 46.136 409.123 46.44 407.619 46.44ZM407.811 42.312C408.515 42.312 409.187 42.152 409.827 41.832C410.499 41.512 411.043 41.016 411.459 40.344C411.907 39.64 412.131 38.696 412.131 37.512C412.131 36.232 411.891 35.224 411.411 34.488C410.963 33.752 410.387 33.224 409.683 32.904C408.979 32.552 408.259 32.376 407.523 32.376C406.819 32.376 406.131 32.552 405.459 32.904C404.787 33.224 404.243 33.736 403.827 34.44C403.411 35.112 403.203 36.04 403.203 37.224C403.203 38.408 403.427 39.384 403.875 40.152C404.323 40.92 404.899 41.48 405.603 41.832C406.339 42.152 407.075 42.312 407.811 42.312ZM382.755 45L401.907 13.32H407.139L387.939 45H382.755Z" fill="white"/>
<path opacity="0.3" d="M110.064 80V64.16H115.584C116.384 64.16 117.112 64.224 117.768 64.352C118.44 64.48 119.032 64.672 119.544 64.928C120.072 65.184 120.512 65.496 120.864 65.864C121.232 66.232 121.504 66.664 121.68 67.16C121.872 67.64 121.968 68.176 121.968 68.768C121.968 69.328 121.88 69.84 121.704 70.304C121.544 70.768 121.296 71.176 120.96 71.528C120.624 71.88 120.208 72.168 119.712 72.392C119.216 72.6 118.64 72.744 117.984 72.824V73.136C118.56 73.2 119.064 73.352 119.496 73.592C119.928 73.832 120.296 74.184 120.6 74.648C120.904 75.096 121.168 75.696 121.392 76.448L122.4 80H120.024L119.208 76.76C119.064 76.104 118.816 75.576 118.464 75.176C118.128 74.776 117.704 74.48 117.192 74.288C116.68 74.096 116.08 74 115.392 74H112.272V80H110.064ZM112.272 72.2H115.392C116.816 72.2 117.888 71.944 118.608 71.432C119.344 70.92 119.712 70.136 119.712 69.08C119.712 68.024 119.36 67.248 118.656 66.752C117.968 66.24 116.896 65.984 115.44 65.984H112.272V72.2ZM130.763 80.312C129.787 80.312 128.923 80.168 128.171 79.88C127.435 79.576 126.811 79.144 126.299 78.584C125.787 78.024 125.403 77.36 125.147 76.592C124.891 75.824 124.763 74.96 124.763 74C124.763 73.024 124.891 72.128 125.147 71.312C125.403 70.496 125.779 69.784 126.275 69.176C126.771 68.568 127.379 68.104 128.099 67.784C128.819 67.448 129.643 67.28 130.571 67.28C131.387 67.28 132.131 67.416 132.803 67.688C133.475 67.96 134.043 68.384 134.507 68.96C134.987 69.52 135.347 70.232 135.587 71.096C135.827 71.944 135.923 72.944 135.875 74.096L126.131 74.168V72.68L134.555 72.608L133.811 73.616C133.891 72.608 133.795 71.776 133.523 71.12C133.251 70.464 132.859 69.968 132.347 69.632C131.851 69.296 131.259 69.128 130.571 69.128C129.835 69.128 129.187 69.32 128.627 69.704C128.067 70.088 127.635 70.64 127.331 71.36C127.043 72.08 126.899 72.952 126.899 73.976C126.899 75.448 127.227 76.576 127.883 77.36C128.539 78.128 129.515 78.512 130.811 78.512C131.307 78.512 131.739 78.456 132.107 78.344C132.491 78.216 132.811 78.048 133.067 77.84C133.339 77.616 133.555 77.36 133.715 77.072C133.891 76.784 134.027 76.472 134.123 76.136L136.043 76.592C135.899 77.168 135.675 77.688 135.371 78.152C135.083 78.6 134.715 78.984 134.267 79.304C133.835 79.624 133.331 79.872 132.755 80.048C132.179 80.224 131.515 80.312 130.763 80.312ZM143.777 80.312C142.913 80.312 142.145 80.216 141.473 80.024C140.801 79.848 140.241 79.592 139.793 79.256C139.345 78.904 139.001 78.488 138.761 78.008C138.521 77.528 138.393 77 138.377 76.424L140.225 75.944C140.193 76.472 140.321 76.936 140.609 77.336C140.913 77.72 141.337 78.016 141.881 78.224C142.441 78.432 143.113 78.536 143.897 78.536C144.841 78.536 145.569 78.376 146.081 78.056C146.609 77.736 146.873 77.296 146.873 76.736C146.873 76.288 146.729 75.944 146.441 75.704C146.153 75.448 145.753 75.248 145.241 75.104C144.745 74.944 144.153 74.8 143.465 74.672C142.889 74.544 142.313 74.4 141.737 74.24C141.161 74.08 140.633 73.872 140.153 73.616C139.689 73.344 139.313 72.992 139.025 72.56C138.737 72.128 138.593 71.592 138.593 70.952C138.593 70.2 138.793 69.552 139.193 69.008C139.593 68.464 140.161 68.04 140.897 67.736C141.633 67.432 142.513 67.28 143.537 67.28C144.561 67.28 145.433 67.44 146.153 67.76C146.873 68.064 147.441 68.496 147.857 69.056C148.273 69.616 148.505 70.272 148.553 71.024L146.657 71.504C146.641 70.976 146.497 70.528 146.225 70.16C145.969 69.792 145.601 69.52 145.121 69.344C144.641 69.152 144.081 69.056 143.441 69.056C142.593 69.056 141.921 69.216 141.425 69.536C140.929 69.856 140.681 70.296 140.681 70.856C140.681 71.272 140.825 71.608 141.113 71.864C141.417 72.12 141.825 72.32 142.337 72.464C142.849 72.608 143.417 72.752 144.041 72.896C144.681 73.024 145.289 73.168 145.865 73.328C146.457 73.488 146.985 73.696 147.449 73.952C147.913 74.208 148.281 74.552 148.553 74.984C148.825 75.4 148.961 75.936 148.961 76.592C148.961 77.408 148.745 78.096 148.313 78.656C147.881 79.2 147.273 79.616 146.489 79.904C145.721 80.176 144.817 80.312 143.777 80.312ZM157.271 80.312C156.295 80.312 155.431 80.168 154.679 79.88C153.943 79.576 153.319 79.144 152.807 78.584C152.295 78.024 151.911 77.36 151.655 76.592C151.399 75.824 151.271 74.96 151.271 74C151.271 73.024 151.399 72.128 151.655 71.312C151.911 70.496 152.287 69.784 152.783 69.176C153.279 68.568 153.887 68.104 154.607 67.784C155.327 67.448 156.151 67.28 157.079 67.28C157.895 67.28 158.639 67.416 159.311 67.688C159.983 67.96 160.551 68.384 161.015 68.96C161.495 69.52 161.855 70.232 162.095 71.096C162.335 71.944 162.431 72.944 162.383 74.096L152.639 74.168V72.68L161.063 72.608L160.319 73.616C160.399 72.608 160.303 71.776 160.031 71.12C159.759 70.464 159.367 69.968 158.855 69.632C158.359 69.296 157.767 69.128 157.079 69.128C156.343 69.128 155.695 69.32 155.135 69.704C154.575 70.088 154.143 70.64 153.839 71.36C153.551 72.08 153.407 72.952 153.407 73.976C153.407 75.448 153.735 76.576 154.391 77.36C155.047 78.128 156.023 78.512 157.319 78.512C157.815 78.512 158.247 78.456 158.615 78.344C158.999 78.216 159.319 78.048 159.575 77.84C159.847 77.616 160.063 77.36 160.223 77.072C160.399 76.784 160.535 76.472 160.631 76.136L162.551 76.592C162.407 77.168 162.183 77.688 161.879 78.152C161.591 78.6 161.223 78.984 160.775 79.304C160.343 79.624 159.839 79.872 159.263 80.048C158.687 80.224 158.023 80.312 157.271 80.312ZM168.416 80.312C167.744 80.312 167.136 80.184 166.592 79.928C166.048 79.656 165.616 79.264 165.296 78.752C164.976 78.224 164.816 77.56 164.816 76.76C164.816 76.168 164.92 75.648 165.128 75.2C165.352 74.752 165.688 74.368 166.136 74.048C166.6 73.728 167.192 73.464 167.912 73.256C168.632 73.048 169.512 72.872 170.552 72.728C171.144 72.648 171.624 72.568 171.992 72.488C172.376 72.408 172.656 72.28 172.832 72.104C173.008 71.912 173.096 71.632 173.096 71.264C173.096 70.656 172.888 70.144 172.472 69.728C172.056 69.312 171.4 69.104 170.504 69.104C170.04 69.104 169.568 69.184 169.088 69.344C168.608 69.504 168.184 69.776 167.816 70.16C167.464 70.528 167.24 71.048 167.144 71.72L165.128 71.048C165.256 70.472 165.464 69.952 165.752 69.488C166.056 69.024 166.44 68.632 166.904 68.312C167.368 67.976 167.904 67.72 168.512 67.544C169.136 67.368 169.824 67.28 170.576 67.28C171.616 67.28 172.48 67.456 173.168 67.808C173.872 68.16 174.392 68.704 174.728 69.44C175.08 70.16 175.256 71.088 175.256 72.224V74.984C175.256 75.48 175.264 76.024 175.28 76.616C175.312 77.192 175.352 77.776 175.4 78.368C175.448 78.944 175.496 79.488 175.544 80H173.528C173.48 79.488 173.432 78.976 173.384 78.464C173.352 77.952 173.328 77.44 173.312 76.928H173C172.76 77.52 172.44 78.072 172.04 78.584C171.64 79.096 171.136 79.512 170.528 79.832C169.936 80.152 169.232 80.312 168.416 80.312ZM169.064 78.536C169.416 78.536 169.768 78.48 170.12 78.368C170.488 78.256 170.848 78.072 171.2 77.816C171.568 77.56 171.912 77.232 172.232 76.832C172.568 76.432 172.864 75.952 173.12 75.392V72.992L173.744 73.112C173.488 73.368 173.144 73.56 172.712 73.688C172.296 73.816 171.832 73.92 171.32 74C170.808 74.08 170.296 74.168 169.784 74.264C169.272 74.344 168.8 74.472 168.368 74.648C167.952 74.808 167.616 75.04 167.36 75.344C167.104 75.648 166.976 76.064 166.976 76.592C166.976 77.232 167.168 77.72 167.552 78.056C167.936 78.376 168.44 78.536 169.064 78.536ZM178.919 80V73.28V67.592H180.887L180.695 71.912H181.103C181.247 70.968 181.471 70.152 181.775 69.464C182.079 68.776 182.479 68.24 182.975 67.856C183.487 67.472 184.119 67.28 184.871 67.28C185.031 67.28 185.215 67.296 185.423 67.328C185.631 67.344 185.871 67.4 186.143 67.496L186.023 69.776C185.783 69.68 185.543 69.616 185.303 69.584C185.063 69.536 184.831 69.512 184.607 69.512C183.983 69.512 183.439 69.712 182.975 70.112C182.527 70.512 182.151 71.056 181.847 71.744C181.543 72.416 181.295 73.176 181.103 74.024V80H178.919ZM193.622 80.312C192.534 80.312 191.606 80.136 190.838 79.784C190.086 79.432 189.47 78.96 188.99 78.368C188.526 77.776 188.182 77.096 187.958 76.328C187.75 75.56 187.646 74.76 187.646 73.928C187.646 73.016 187.766 72.16 188.006 71.36C188.246 70.56 188.606 69.856 189.086 69.248C189.582 68.624 190.19 68.144 190.91 67.808C191.646 67.456 192.502 67.28 193.478 67.28C194.422 67.28 195.254 67.448 195.974 67.784C196.694 68.104 197.278 68.56 197.726 69.152C198.19 69.744 198.486 70.448 198.614 71.264L196.526 71.84C196.494 71.392 196.358 70.96 196.118 70.544C195.894 70.128 195.558 69.792 195.11 69.536C194.662 69.264 194.11 69.128 193.454 69.128C192.83 69.128 192.294 69.248 191.846 69.488C191.414 69.728 191.046 70.064 190.742 70.496C190.454 70.928 190.23 71.432 190.07 72.008C189.926 72.584 189.854 73.208 189.854 73.88C189.854 74.808 189.982 75.616 190.238 76.304C190.51 76.992 190.926 77.528 191.486 77.912C192.046 78.296 192.766 78.488 193.646 78.488C194.302 78.488 194.862 78.376 195.326 78.152C195.79 77.912 196.158 77.584 196.43 77.168C196.702 76.736 196.878 76.232 196.958 75.656L198.974 76.112C198.862 76.8 198.654 77.408 198.35 77.936C198.046 78.464 197.662 78.904 197.198 79.256C196.734 79.592 196.198 79.848 195.59 80.024C194.998 80.216 194.342 80.312 193.622 80.312ZM201.466 80V72.464V63.2H203.722V67.064C203.722 67.416 203.706 67.776 203.674 68.144C203.658 68.496 203.626 68.856 203.578 69.224C203.546 69.592 203.506 69.968 203.458 70.352C203.41 70.72 203.354 71.096 203.29 71.48H203.698C203.938 70.536 204.242 69.76 204.61 69.152C204.978 68.528 205.434 68.064 205.978 67.76C206.538 67.44 207.202 67.28 207.97 67.28C209.378 67.28 210.426 67.776 211.114 68.768C211.818 69.744 212.17 71.208 212.17 73.16V80H209.962V73.376C209.962 71.936 209.738 70.888 209.29 70.232C208.858 69.56 208.202 69.224 207.322 69.224C206.586 69.224 205.962 69.44 205.45 69.872C204.938 70.304 204.53 70.888 204.226 71.624C203.938 72.36 203.746 73.2 203.65 74.144V80H201.466ZM224.69 80.312C224.018 80.312 223.41 80.184 222.866 79.928C222.322 79.656 221.89 79.264 221.57 78.752C221.25 78.224 221.09 77.56 221.09 76.76C221.09 76.168 221.194 75.648 221.402 75.2C221.626 74.752 221.962 74.368 222.41 74.048C222.874 73.728 223.465 73.464 224.186 73.256C224.906 73.048 225.786 72.872 226.826 72.728C227.418 72.648 227.898 72.568 228.266 72.488C228.65 72.408 228.93 72.28 229.106 72.104C229.282 71.912 229.37 71.632 229.37 71.264C229.37 70.656 229.162 70.144 228.746 69.728C228.33 69.312 227.674 69.104 226.778 69.104C226.314 69.104 225.842 69.184 225.362 69.344C224.882 69.504 224.458 69.776 224.09 70.16C223.738 70.528 223.514 71.048 223.418 71.72L221.402 71.048C221.53 70.472 221.738 69.952 222.026 69.488C222.33 69.024 222.714 68.632 223.178 68.312C223.642 67.976 224.178 67.72 224.786 67.544C225.41 67.368 226.098 67.28 226.85 67.28C227.89 67.28 228.754 67.456 229.442 67.808C230.146 68.16 230.666 68.704 231.002 69.44C231.354 70.16 231.53 71.088 231.53 72.224V74.984C231.53 75.48 231.538 76.024 231.554 76.616C231.586 77.192 231.626 77.776 231.674 78.368C231.722 78.944 231.77 79.488 231.818 80H229.802C229.754 79.488 229.706 78.976 229.658 78.464C229.626 77.952 229.602 77.44 229.586 76.928H229.274C229.034 77.52 228.714 78.072 228.314 78.584C227.914 79.096 227.41 79.512 226.802 79.832C226.21 80.152 225.506 80.312 224.69 80.312ZM225.338 78.536C225.69 78.536 226.042 78.48 226.394 78.368C226.762 78.256 227.122 78.072 227.474 77.816C227.842 77.56 228.186 77.232 228.506 76.832C228.842 76.432 229.138 75.952 229.394 75.392V72.992L230.018 73.112C229.762 73.368 229.418 73.56 228.986 73.688C228.57 73.816 228.106 73.92 227.594 74C227.082 74.08 226.57 74.168 226.058 74.264C225.546 74.344 225.074 74.472 224.642 74.648C224.226 74.808 223.89 75.04 223.634 75.344C223.378 75.648 223.25 76.064 223.25 76.592C223.25 77.232 223.442 77.72 223.826 78.056C224.21 78.376 224.714 78.536 225.338 78.536ZM235.193 80V72.296V67.592H237.161L236.945 71.528H237.353C237.577 70.552 237.873 69.752 238.241 69.128C238.625 68.504 239.105 68.04 239.681 67.736C240.257 67.432 240.929 67.28 241.697 67.28C243.073 67.28 244.113 67.776 244.817 68.768C245.537 69.744 245.897 71.208 245.897 73.16V80H243.689V73.352C243.689 71.944 243.465 70.904 243.017 70.232C242.585 69.56 241.945 69.224 241.097 69.224C240.329 69.224 239.673 69.464 239.129 69.944C238.601 70.424 238.185 71.056 237.881 71.84C237.577 72.624 237.409 73.472 237.377 74.384V80H235.193ZM253.905 80.312C252.849 80.312 251.945 80.032 251.193 79.472C250.441 78.912 249.865 78.144 249.465 77.168C249.081 76.192 248.889 75.072 248.889 73.808C248.889 72.544 249.081 71.424 249.465 70.448C249.849 69.472 250.409 68.704 251.145 68.144C251.881 67.584 252.785 67.304 253.857 67.304C254.737 67.304 255.457 67.488 256.017 67.856C256.577 68.224 257.025 68.704 257.361 69.296C257.713 69.872 257.969 70.504 258.129 71.192H258.561C258.481 70.728 258.409 70.248 258.345 69.752C258.281 69.24 258.225 68.744 258.177 68.264C258.129 67.768 258.105 67.328 258.105 66.944V63.2H260.313V73.88V80H258.345L258.465 76.64H258.081C257.889 77.36 257.617 78 257.265 78.56C256.913 79.104 256.465 79.536 255.921 79.856C255.377 80.16 254.705 80.312 253.905 80.312ZM254.409 78.392C254.985 78.392 255.505 78.256 255.969 77.984C256.433 77.712 256.825 77.36 257.145 76.928C257.465 76.48 257.705 76 257.865 75.488C258.041 74.976 258.129 74.48 258.129 74V73.712C258.129 73.376 258.081 73.016 257.985 72.632C257.889 72.232 257.745 71.832 257.553 71.432C257.377 71.032 257.137 70.664 256.833 70.328C256.545 69.976 256.201 69.704 255.801 69.512C255.401 69.304 254.953 69.2 254.457 69.2C253.737 69.2 253.129 69.408 252.633 69.824C252.153 70.224 251.785 70.776 251.529 71.48C251.289 72.184 251.169 72.976 251.169 73.856C251.169 74.768 251.297 75.568 251.553 76.256C251.809 76.928 252.177 77.456 252.657 77.84C253.153 78.208 253.737 78.392 254.409 78.392ZM271.529 80V78.104H276.209C277.297 78.104 278.193 77.856 278.897 77.36C279.601 76.848 280.121 76.144 280.457 75.248C280.809 74.352 280.985 73.312 280.985 72.128C280.985 71.088 280.873 70.184 280.649 69.416C280.441 68.648 280.113 68.024 279.665 67.544C279.217 67.048 278.649 66.68 277.961 66.44C277.289 66.184 276.489 66.056 275.561 66.056H271.529V64.16H275.513C277.305 64.16 278.769 64.472 279.905 65.096C281.041 65.72 281.881 66.616 282.425 67.784C282.969 68.952 283.241 70.344 283.241 71.96C283.241 73.032 283.121 74 282.881 74.864C282.657 75.728 282.329 76.48 281.897 77.12C281.481 77.76 280.985 78.296 280.409 78.728C279.833 79.144 279.193 79.464 278.489 79.688C277.785 79.896 277.049 80 276.281 80H271.529ZM270.353 80V64.16H272.561V80H270.353ZM291.943 80.312C290.967 80.312 290.103 80.168 289.351 79.88C288.615 79.576 287.991 79.144 287.479 78.584C286.967 78.024 286.583 77.36 286.327 76.592C286.071 75.824 285.943 74.96 285.943 74C285.943 73.024 286.071 72.128 286.327 71.312C286.583 70.496 286.959 69.784 287.455 69.176C287.951 68.568 288.559 68.104 289.279 67.784C289.999 67.448 290.823 67.28 291.751 67.28C292.567 67.28 293.311 67.416 293.983 67.688C294.655 67.96 295.223 68.384 295.687 68.96C296.167 69.52 296.527 70.232 296.767 71.096C297.007 71.944 297.103 72.944 297.055 74.096L287.311 74.168V72.68L295.735 72.608L294.991 73.616C295.071 72.608 294.975 71.776 294.703 71.12C294.431 70.464 294.039 69.968 293.527 69.632C293.031 69.296 292.439 69.128 291.751 69.128C291.015 69.128 290.367 69.32 289.807 69.704C289.247 70.088 288.815 70.64 288.511 71.36C288.223 72.08 288.079 72.952 288.079 73.976C288.079 75.448 288.407 76.576 289.063 77.36C289.719 78.128 290.695 78.512 291.991 78.512C292.487 78.512 292.919 78.456 293.287 78.344C293.671 78.216 293.991 78.048 294.247 77.84C294.519 77.616 294.735 77.36 294.895 77.072C295.071 76.784 295.207 76.472 295.303 76.136L297.223 76.592C297.079 77.168 296.855 77.688 296.551 78.152C296.263 78.6 295.895 78.984 295.447 79.304C295.015 79.624 294.511 79.872 293.935 80.048C293.359 80.224 292.695 80.312 291.943 80.312ZM302.998 80L298.558 67.616H300.982L304.366 78.152H304.702L308.062 67.616H310.438L306.022 80H302.998ZM317.865 80.312C316.889 80.312 316.025 80.168 315.273 79.88C314.537 79.576 313.913 79.144 313.401 78.584C312.889 78.024 312.505 77.36 312.249 76.592C311.993 75.824 311.865 74.96 311.865 74C311.865 73.024 311.993 72.128 312.249 71.312C312.505 70.496 312.881 69.784 313.377 69.176C313.873 68.568 314.481 68.104 315.201 67.784C315.921 67.448 316.745 67.28 317.673 67.28C318.489 67.28 319.233 67.416 319.905 67.688C320.577 67.96 321.145 68.384 321.609 68.96C322.089 69.52 322.449 70.232 322.689 71.096C322.929 71.944 323.025 72.944 322.977 74.096L313.233 74.168V72.68L321.657 72.608L320.913 73.616C320.993 72.608 320.897 71.776 320.625 71.12C320.353 70.464 319.961 69.968 319.449 69.632C318.953 69.296 318.361 69.128 317.673 69.128C316.937 69.128 316.289 69.32 315.729 69.704C315.169 70.088 314.737 70.64 314.433 71.36C314.145 72.08 314.001 72.952 314.001 73.976C314.001 75.448 314.329 76.576 314.985 77.36C315.641 78.128 316.617 78.512 317.913 78.512C318.409 78.512 318.841 78.456 319.209 78.344C319.593 78.216 319.913 78.048 320.169 77.84C320.441 77.616 320.657 77.36 320.817 77.072C320.993 76.784 321.129 76.472 321.225 76.136L323.145 76.592C323.001 77.168 322.777 77.688 322.473 78.152C322.185 78.6 321.817 78.984 321.369 79.304C320.937 79.624 320.433 79.872 319.857 80.048C319.281 80.224 318.617 80.312 317.865 80.312ZM326.084 80V63.2H328.268V80H326.084ZM337.365 80.312C336.181 80.312 335.133 80.056 334.221 79.544C333.325 79.016 332.621 78.264 332.109 77.288C331.613 76.312 331.365 75.128 331.365 73.736C331.365 72.296 331.629 71.104 332.157 70.16C332.701 69.2 333.421 68.48 334.317 68C335.213 67.52 336.213 67.28 337.317 67.28C338.469 67.28 339.493 67.536 340.389 68.048C341.301 68.544 342.021 69.28 342.549 70.256C343.077 71.216 343.341 72.408 343.341 73.832C343.341 75.256 343.077 76.448 342.549 77.408C342.037 78.368 341.325 79.096 340.413 79.592C339.517 80.072 338.501 80.312 337.365 80.312ZM337.461 78.512C338.229 78.512 338.885 78.328 339.429 77.96C339.989 77.576 340.413 77.04 340.701 76.352C341.005 75.664 341.157 74.848 341.157 73.904C341.157 72.928 340.997 72.088 340.677 71.384C340.373 70.664 339.933 70.112 339.357 69.728C338.781 69.328 338.085 69.128 337.269 69.128C336.533 69.128 335.885 69.304 335.325 69.656C334.765 70.008 334.333 70.528 334.029 71.216C333.725 71.888 333.573 72.712 333.573 73.688C333.573 75.192 333.917 76.376 334.605 77.24C335.309 78.088 336.261 78.512 337.461 78.512ZM346.451 83.888V73.808V67.592H348.419L348.299 70.784H348.659C348.851 70.08 349.115 69.472 349.451 68.96C349.803 68.432 350.251 68.024 350.795 67.736C351.339 67.432 351.995 67.28 352.763 67.28C353.899 67.28 354.843 67.568 355.595 68.144C356.363 68.704 356.939 69.48 357.323 70.472C357.707 71.448 357.899 72.56 357.899 73.808C357.899 75.056 357.707 76.168 357.323 77.144C356.939 78.12 356.371 78.896 355.619 79.472C354.883 80.032 353.979 80.312 352.907 80.312C352.043 80.312 351.323 80.136 350.747 79.784C350.187 79.416 349.739 78.936 349.403 78.344C349.067 77.752 348.803 77.136 348.611 76.496H348.203C348.299 76.928 348.379 77.376 348.443 77.84C348.507 78.304 348.555 78.768 348.587 79.232C348.635 79.68 348.659 80.112 348.659 80.528V83.888H346.451ZM352.355 78.416C353.059 78.416 353.651 78.216 354.131 77.816C354.611 77.4 354.979 76.84 355.235 76.136C355.491 75.432 355.619 74.64 355.619 73.76C355.619 72.816 355.483 72.008 355.211 71.336C354.955 70.664 354.587 70.144 354.107 69.776C353.627 69.392 353.043 69.2 352.355 69.2C351.763 69.2 351.235 69.336 350.771 69.608C350.323 69.864 349.939 70.216 349.619 70.664C349.299 71.096 349.051 71.576 348.875 72.104C348.715 72.616 348.635 73.128 348.635 73.64V73.928C348.635 74.248 348.683 74.608 348.779 75.008C348.875 75.392 349.019 75.784 349.211 76.184C349.403 76.584 349.643 76.952 349.931 77.288C350.235 77.624 350.587 77.896 350.987 78.104C351.387 78.312 351.843 78.416 352.355 78.416ZM361.052 80V72.32V67.592H362.996L362.78 71.528H363.188C363.396 70.584 363.676 69.8 364.028 69.176C364.38 68.536 364.812 68.064 365.324 67.76C365.852 67.44 366.452 67.28 367.124 67.28C367.924 67.28 368.58 67.48 369.092 67.88C369.604 68.264 369.98 68.768 370.22 69.392C370.476 70.016 370.604 70.704 370.604 71.456H370.988C371.164 70.56 371.436 69.8 371.804 69.176C372.172 68.552 372.628 68.08 373.172 67.76C373.716 67.44 374.34 67.28 375.044 67.28C375.684 67.28 376.244 67.408 376.724 67.664C377.204 67.92 377.612 68.304 377.948 68.816C378.284 69.312 378.532 69.928 378.692 70.664C378.852 71.4 378.932 72.248 378.932 73.208V80H376.748V73.496C376.748 72.552 376.66 71.768 376.484 71.144C376.308 70.504 376.044 70.032 375.692 69.728C375.356 69.408 374.924 69.248 374.396 69.248C373.804 69.248 373.268 69.456 372.788 69.872C372.324 70.272 371.94 70.84 371.636 71.576C371.348 72.296 371.156 73.12 371.06 74.048V80H368.924V73.712C368.924 72.72 368.836 71.896 368.66 71.24C368.484 70.584 368.22 70.088 367.868 69.752C367.532 69.416 367.092 69.248 366.548 69.248C365.908 69.248 365.356 69.472 364.892 69.92C364.428 70.352 364.052 70.936 363.764 71.672C363.492 72.408 363.316 73.232 363.236 74.144V80H361.052ZM387.849 80.312C386.873 80.312 386.009 80.168 385.257 79.88C384.521 79.576 383.897 79.144 383.385 78.584C382.873 78.024 382.489 77.36 382.233 76.592C381.977 75.824 381.849 74.96 381.849 74C381.849 73.024 381.977 72.128 382.233 71.312C382.489 70.496 382.865 69.784 383.361 69.176C383.857 68.568 384.465 68.104 385.185 67.784C385.905 67.448 386.729 67.28 387.657 67.28C388.473 67.28 389.217 67.416 389.889 67.688C390.561 67.96 391.129 68.384 391.593 68.96C392.073 69.52 392.433 70.232 392.673 71.096C392.913 71.944 393.009 72.944 392.961 74.096L383.217 74.168V72.68L391.641 72.608L390.897 73.616C390.977 72.608 390.881 71.776 390.609 71.12C390.337 70.464 389.945 69.968 389.433 69.632C388.937 69.296 388.345 69.128 387.657 69.128C386.921 69.128 386.273 69.32 385.713 69.704C385.153 70.088 384.721 70.64 384.417 71.36C384.129 72.08 383.985 72.952 383.985 73.976C383.985 75.448 384.313 76.576 384.969 77.36C385.625 78.128 386.601 78.512 387.897 78.512C388.393 78.512 388.825 78.456 389.193 78.344C389.577 78.216 389.897 78.048 390.153 77.84C390.425 77.616 390.641 77.36 390.801 77.072C390.977 76.784 391.113 76.472 391.209 76.136L393.129 76.592C392.985 77.168 392.761 77.688 392.457 78.152C392.169 78.6 391.801 78.984 391.353 79.304C390.921 79.624 390.417 79.872 389.841 80.048C389.265 80.224 388.601 80.312 387.849 80.312ZM396.068 80V72.296V67.592H398.036L397.82 71.528H398.228C398.452 70.552 398.748 69.752 399.116 69.128C399.5 68.504 399.98 68.04 400.556 67.736C401.132 67.432 401.804 67.28 402.572 67.28C403.948 67.28 404.988 67.776 405.692 68.768C406.412 69.744 406.772 71.208 406.772 73.16V80H404.564V73.352C404.564 71.944 404.34 70.904 403.892 70.232C403.46 69.56 402.82 69.224 401.972 69.224C401.204 69.224 400.548 69.464 400.004 69.944C399.476 70.424 399.06 71.056 398.756 71.84C398.452 72.624 398.284 73.472 398.252 74.384V80H396.068ZM414.205 80.24C413.053 80.24 412.197 79.928 411.637 79.304C411.077 78.68 410.797 77.728 410.797 76.448V69.416H408.925L408.949 67.592H410.125C410.525 67.592 410.813 67.52 410.989 67.376C411.181 67.232 411.293 66.992 411.325 66.656L411.565 64.784H412.909V67.592H416.485V69.44H412.909V76.4C412.909 77.04 413.053 77.504 413.341 77.792C413.645 78.064 414.077 78.2 414.637 78.2C414.941 78.2 415.253 78.16 415.573 78.08C415.909 78 416.237 77.84 416.557 77.6V79.784C416.093 79.96 415.661 80.08 415.261 80.144C414.877 80.208 414.525 80.24 414.205 80.24Z" fill="white"/>
<defs>
<linearGradient id="paint0_linear_80_1828" x1="738.826" y1="286.367" x2="760.542" y2="286.367" gradientUnits="userSpaceOnUse">
<stop stop-color="#69F5FF"/>
<stop offset="1" stop-color="#7098FF"/>
</linearGradient>
<linearGradient id="paint1_linear_80_1828" x1="739.574" y1="284.994" x2="757.67" y2="284.994" gradientUnits="userSpaceOnUse">
<stop stop-color="#69F5FF"/>
<stop offset="1" stop-color="#7098FF"/>
</linearGradient>
<linearGradient id="paint2_linear_80_1828" x1="738.077" y1="357.068" x2="755.924" y2="357.068" gradientUnits="userSpaceOnUse">
<stop stop-color="#69F5FF"/>
<stop offset="1" stop-color="#7098FF"/>
</linearGradient>
<linearGradient id="paint3_linear_80_1828" x1="665.068" y1="283.87" x2="681.667" y2="283.87" gradientUnits="userSpaceOnUse">
<stop stop-color="#69F5FF"/>
<stop offset="1" stop-color="#7098FF"/>
</linearGradient>
<linearGradient id="paint4_linear_80_1828" x1="666.44" y1="357.13" x2="682.914" y2="357.13" gradientUnits="userSpaceOnUse">
<stop stop-color="#69F5FF"/>
<stop offset="1" stop-color="#7098FF"/>
</linearGradient>
<linearGradient id="paint5_linear_80_1828" x1="711.497" y1="310.516" x2="711.278" y2="256.713" gradientUnits="userSpaceOnUse">
<stop stop-color="#69F5FF"/>
<stop offset="1" stop-color="#7098FF"/>
</linearGradient>
<linearGradient id="paint6_linear_80_1828" x1="715.619" y1="393.759" x2="715.339" y2="330.466" gradientUnits="userSpaceOnUse">
<stop stop-color="#69F5FF"/>
<stop offset="1" stop-color="#7098FF"/>
</linearGradient>
<linearGradient id="paint7_linear_80_1828" x1="647.096" y1="322.249" x2="683.289" y2="322.249" gradientUnits="userSpaceOnUse">
<stop stop-color="#69F5FF"/>
<stop offset="1" stop-color="#7098FF"/>
</linearGradient>
<linearGradient id="paint8_linear_80_1828" x1="738.701" y1="322.124" x2="779.511" y2="322.124" gradientUnits="userSpaceOnUse">
<stop stop-color="#69F5FF"/>
<stop offset="1" stop-color="#7098FF"/>
</linearGradient>
<linearGradient id="paint9_linear_80_1828" x1="737.952" y1="355.134" x2="761.04" y2="355.134" gradientUnits="userSpaceOnUse">
<stop stop-color="#69F5FF"/>
<stop offset="1" stop-color="#7098FF"/>
</linearGradient>
<linearGradient id="paint10_linear_80_1828" x1="660.949" y1="355.446" x2="687.158" y2="355.446" gradientUnits="userSpaceOnUse">
<stop stop-color="#69F5FF"/>
<stop offset="1" stop-color="#7098FF"/>
</linearGradient>
<linearGradient id="paint11_linear_80_1828" x1="661.448" y1="286.304" x2="686.533" y2="286.304" gradientUnits="userSpaceOnUse">
<stop stop-color="#69F5FF"/>
<stop offset="1" stop-color="#7098FF"/>
</linearGradient>
<linearGradient id="paint12_linear_80_1828" x1="639.358" y1="321.312" x2="782.007" y2="321.312" gradientUnits="userSpaceOnUse">
<stop stop-color="#69F5FF"/>
<stop offset="1" stop-color="#7098FF"/>
</linearGradient>
<linearGradient id="paint13_linear_80_1828" x1="684.911" y1="321.998" x2="740.323" y2="321.998" gradientUnits="userSpaceOnUse">
<stop stop-color="#69F5FF"/>
<stop offset="1" stop-color="#7098FF"/>
</linearGradient>
<linearGradient id="paint14_linear_80_1828" x1="683.663" y1="296.204" x2="683.43" y2="347.604" gradientUnits="userSpaceOnUse">
<stop stop-color="#69F5FF"/>
<stop offset="1" stop-color="#7098FF"/>
</linearGradient>
<linearGradient id="paint15_linear_80_1828" x1="735.576" y1="297.912" x2="735.874" y2="345.407" gradientUnits="userSpaceOnUse">
<stop stop-color="#69F5FF"/>
<stop offset="1" stop-color="#7098FF"/>
</linearGradient>
<linearGradient id="paint16_linear_80_1828" x1="678.921" y1="346.959" x2="688.156" y2="346.959" gradientUnits="userSpaceOnUse">
<stop stop-color="#69F5FF"/>
<stop offset="1" stop-color="#7098FF"/>
</linearGradient>
<linearGradient id="paint17_linear_80_1828" x1="733.834" y1="346.959" x2="743.069" y2="346.959" gradientUnits="userSpaceOnUse">
<stop stop-color="#69F5FF"/>
<stop offset="1" stop-color="#7098FF"/>
</linearGradient>
<linearGradient id="paint18_linear_80_1828" x1="678.921" y1="294.791" x2="688.156" y2="294.791" gradientUnits="userSpaceOnUse">
<stop stop-color="#69F5FF"/>
<stop offset="1" stop-color="#7098FF"/>
</linearGradient>
<linearGradient id="paint19_linear_80_1828" x1="681.667" y1="273.575" x2="690.902" y2="273.575" gradientUnits="userSpaceOnUse">
<stop stop-color="#69F5FF"/>
<stop offset="1" stop-color="#7098FF"/>
</linearGradient>
<linearGradient id="paint20_linear_80_1828" x1="656.706" y1="299.534" x2="665.941" y2="299.534" gradientUnits="userSpaceOnUse">
<stop stop-color="#69F5FF"/>
<stop offset="1" stop-color="#7098FF"/>
</linearGradient>
<linearGradient id="paint21_linear_80_1828" x1="656.706" y1="340.469" x2="665.941" y2="340.469" gradientUnits="userSpaceOnUse">
<stop stop-color="#69F5FF"/>
<stop offset="1" stop-color="#7098FF"/>
</linearGradient>
<linearGradient id="paint22_linear_80_1828" x1="683.414" y1="369.173" x2="692.649" y2="369.173" gradientUnits="userSpaceOnUse">
<stop stop-color="#69F5FF"/>
<stop offset="1" stop-color="#7098FF"/>
</linearGradient>
<linearGradient id="paint23_linear_80_1828" x1="731.088" y1="369.173" x2="740.324" y2="369.173" gradientUnits="userSpaceOnUse">
<stop stop-color="#69F5FF"/>
<stop offset="1" stop-color="#7098FF"/>
</linearGradient>
<linearGradient id="paint24_linear_80_1828" x1="756.298" y1="340.469" x2="765.533" y2="340.469" gradientUnits="userSpaceOnUse">
<stop stop-color="#69F5FF"/>
<stop offset="1" stop-color="#7098FF"/>
</linearGradient>
<linearGradient id="paint25_linear_80_1828" x1="756.298" y1="299.534" x2="765.533" y2="299.534" gradientUnits="userSpaceOnUse">
<stop stop-color="#69F5FF"/>
<stop offset="1" stop-color="#7098FF"/>
</linearGradient>
<linearGradient id="paint26_linear_80_1828" x1="731.088" y1="273.575" x2="740.324" y2="273.575" gradientUnits="userSpaceOnUse">
<stop stop-color="#69F5FF"/>
<stop offset="1" stop-color="#7098FF"/>
</linearGradient>
<linearGradient id="paint27_linear_80_1828" x1="733.834" y1="294.791" x2="743.069" y2="294.791" gradientUnits="userSpaceOnUse">
<stop stop-color="#69F5FF"/>
<stop offset="1" stop-color="#7098FF"/>
</linearGradient>
<linearGradient id="paint28_linear_80_1828" x1="638.484" y1="322.248" x2="783.504" y2="322.248" gradientUnits="userSpaceOnUse">
<stop stop-color="#69F5FF"/>
<stop offset="1" stop-color="#7098FF"/>
</linearGradient>
<linearGradient id="paint29_linear_80_1828" x1="701.635" y1="251.36" x2="720.355" y2="251.36" gradientUnits="userSpaceOnUse">
<stop stop-color="#69F5FF"/>
<stop offset="1" stop-color="#7098FF"/>
</linearGradient>
<linearGradient id="paint30_linear_80_1828" x1="751.556" y1="272.327" x2="770.276" y2="272.327" gradientUnits="userSpaceOnUse">
<stop stop-color="#69F5FF"/>
<stop offset="1" stop-color="#7098FF"/>
</linearGradient>
<linearGradient id="paint31_linear_80_1828" x1="772.522" y1="322.248" x2="791.242" y2="322.248" gradientUnits="userSpaceOnUse">
<stop stop-color="#69F5FF"/>
<stop offset="1" stop-color="#7098FF"/>
</linearGradient>
<linearGradient id="paint32_linear_80_1828" x1="751.556" y1="372.169" x2="770.276" y2="372.169" gradientUnits="userSpaceOnUse">
<stop stop-color="#69F5FF"/>
<stop offset="1" stop-color="#7098FF"/>
</linearGradient>
<linearGradient id="paint33_linear_80_1828" x1="701.884" y1="392.387" x2="720.605" y2="392.387" gradientUnits="userSpaceOnUse">
<stop stop-color="#69F5FF"/>
<stop offset="1" stop-color="#7098FF"/>
</linearGradient>
<linearGradient id="paint34_linear_80_1828" x1="650.716" y1="370.671" x2="669.436" y2="370.671" gradientUnits="userSpaceOnUse">
<stop stop-color="#69F5FF"/>
<stop offset="1" stop-color="#7098FF"/>
</linearGradient>
<linearGradient id="paint35_linear_80_1828" x1="629" y1="322.248" x2="647.72" y2="322.248" gradientUnits="userSpaceOnUse">
<stop stop-color="#69F5FF"/>
<stop offset="1" stop-color="#7098FF"/>
</linearGradient>
<linearGradient id="paint36_linear_80_1828" x1="650.716" y1="272.327" x2="669.436" y2="272.327" gradientUnits="userSpaceOnUse">
<stop stop-color="#69F5FF"/>
<stop offset="1" stop-color="#7098FF"/>
</linearGradient>
<linearGradient id="paint37_linear_80_1828" x1="536" y1="251.5" x2="710.002" y2="50.0017" gradientUnits="userSpaceOnUse">
<stop stop-color="#7098FF" stop-opacity="0"/>
<stop offset="1" stop-color="#69F5FF"/>
</linearGradient>
<linearGradient id="paint38_linear_80_1828" x1="720.188" y1="595.138" x2="459.165" y2="409.278" gradientUnits="userSpaceOnUse">
<stop stop-color="#69F5FF" stop-opacity="0"/>
<stop offset="1" stop-color="#7098FF"/>
</linearGradient>
<linearGradient id="paint39_linear_80_1828" x1="691.73" y1="60.313" x2="1009.09" y2="324.889" gradientUnits="userSpaceOnUse">
<stop stop-color="#7098FF" stop-opacity="0"/>
<stop offset="1" stop-color="#69F5FF"/>
</linearGradient>
</defs>
</svg>
